<svg id="Layer_1" data-name="Layer 1" xmlns="http://www.w3.org/2000/svg" viewBox="0 0 175 175"><defs><style>.cls-1{fill:#231f20;}.cls-2{fill:#fff;}.cls-3{fill:#ed1c24;}.cls-4{fill:#ef3c39;}</style></defs><title>logo_small</title><path class="cls-1" d="M35.48,85.56A58.92,58.92,0,1,1,94.4,144.47,58.92,58.92,0,0,1,35.48,85.56"/><path class="cls-1" d="M37,85.56c0.28-24,15.21-45.88,37.95-54a57.44,57.44,0,0,1,68.61,83.76A58,58,0,0,1,82.6,141.76c-26.5-5.58-45.3-29.32-45.61-56.21a1.5,1.5,0,0,0-3,0A60.41,60.41,0,0,0,141,124,60.41,60.41,0,0,0,83.12,26.2C54.71,31.5,34.31,56.93,34,85.56a1.5,1.5,0,0,0,3,0h0Z"/><ellipse class="cls-2" cx="75.88" cy="25.5" rx="7.74" ry="9.17" transform="translate(-4.17 24.69) rotate(-18)"/><path class="cls-3" d="M69.54,26c0.17,0.16.42-.22,0.23,0.07C69.56,26.13,69.4,26.13,69.54,26Z"/><path class="cls-3" d="M70.11,26.74a0.91,0.91,0,0,1,1,.74,0.88,0.88,0,0,0,.75.82c0.09,0-.64.39-0.38,0.45,1.25,0,1.33,1,1.46,2.27l-0.18.12c0,0.23.65-.18,0.71,0a1.25,1.25,0,0,0-.26.3c0.3-.31.37,0.05,0.62-0.17,0,0.17-.25.44-0.28,0.65l0.36-.34c0.44-.39.56-0.29,0.65-0.12s0.19,0.39.49,0.22a0.71,0.71,0,0,0-.17.26,6,6,0,0,1,2.09,0,2.47,2.47,0,0,0-.18.65,0.83,0.83,0,0,1,.55-0.64c0,0.52.35-.4,0.48-0.11l0,0.11c0.2-.53.17,0.33,0.34-0.31L78.21,32c0.1-.73.18,0.41,0.31,0V31.92c0.11-.18.16,0.19,0.26,0.06v0.08c0.22-.2.39,0.21,0.33-0.37,0.12,0.46-.21.22,0,0.88a7.65,7.65,0,0,1,2.23-1.07,1.79,1.79,0,0,1,.38.39,0.74,0.74,0,0,0,.14-0.53,0.61,0.61,0,0,0,.25.23c0.25,0.11-.2-0.63.07-0.5a1.17,1.17,0,0,0,.25.5,0.82,0.82,0,0,1,.1-0.71,0.85,0.85,0,0,0,.16.3c-0.16-.5.32-0.13,0.24-0.48L83.08,31c0.47,0.13-.41-0.57-0.09-0.54a1,1,0,0,0,.22.3,1.18,1.18,0,0,1,.07-0.95,0.7,0.7,0,0,0,.1.1,0.77,0.77,0,0,0,.29-0.62c0.17,0,.64.5,0.69,0.23-0.55-.36,0-0.49-0.72-0.77,0.18-.1.56-0.23,0.41-0.45a2.57,2.57,0,0,1,.74.46l0.42,0.07c0.23,0.14-.14.08,0.18,0.2a0.65,0.65,0,0,1,0-.48,3.83,3.83,0,0,1-.94-1,7.12,7.12,0,0,0,.79.32l-0.54-.39-0.55-.37c0-.08.5,0.15,0.38,0a1.53,1.53,0,0,1-.38-0.2c0.09,0-.08-0.34.57-0.2a1,1,0,0,0,.35.14c0-.15-0.19-0.21-0.16-0.36l0.09,0c0.12-.08-0.2-0.34-0.58-0.31,0,0.06.39,0.06,0.18,0.11a0.5,0.5,0,0,1-.42-0.45,2,2,0,0,0,.45.14,2.55,2.55,0,0,1-.8-0.7c-0.31,0,.56.14,0.39,0.15,0.46-.22-0.57-0.57.08-0.74a1.2,1.2,0,0,1-.36,0c0-.12.5-0.1,0.33-0.19,0.27,0-.09-0.11-0.17-0.19s0.13,0,.16.05C84,24.27,83.64,23.86,84,23.57a1.25,1.25,0,0,1-.64-0.14l0.41,0c0.24-.08-0.05-0.19.29-0.25-0.51-.07.47,0.45,0.07,0.32,0.34-.09-0.67-0.16-0.11-0.2,0-.13-0.51-0.15-0.14-0.31a0.81,0.81,0,0,0,.53-0.1A0.74,0.74,0,0,0,84,22.74l-0.18,0c-0.39.09,0-.15-0.4,0,0.32-.09-0.24-0.17.4-0.34l0.51-.11a3.08,3.08,0,0,0-.81,0,0.9,0.9,0,0,1,.22-0.09c-0.78.2,0-.22-0.62-0.16a0.34,0.34,0,0,0,.08-0.18V21.67h0l0,0.08h0a0.34,0.34,0,0,1,.25-0.3c-0.27,0-.58,0-0.46-0.22a0.59,0.59,0,0,0,.28,0c0.19-.17,0-0.11-0.16-0.13a3,3,0,0,0,.58-0.55,2.53,2.53,0,0,0-.89.3c0.67-.44-0.6-0.07,0-0.51a0.78,0.78,0,0,0,.55-0.2c0.65-.48-0.63.07-0.38-0.26l-0.55.36c0.31-.27-0.45,0,0.13-0.35-0.23.07,0.08-.29-0.45,0.06,0.29-.53-0.63-0.34.17-1.18-0.11,0-.09-0.11-0.34.11s0.26-.09.09,0.08a0.64,0.64,0,0,0-.25.14,0.78,0.78,0,0,1,.52-0.51c0.17-.42-1,0.54-0.93.2,0.2-.17.27-0.25,0.18-0.28l-0.42.22a2,2,0,0,1,.69-0.8,0.38,0.38,0,0,0-.44.11l0.31-.49c-0.22.35-.24,0.14-0.34,0.2l0.1-.05c0.12-.16,0-0.13-0.12-0.13a0.78,0.78,0,0,0-.18.46c-0.16.11-.19,0-0.38,0.18,0.3-.32.1-0.32,0.08-0.4a0.67,0.67,0,0,0-.32.23,0.61,0.61,0,0,1,.17-0.32c0.07,0-.09.21,0.07,0.08s0.32-.47.06-0.31-0.52.7-.46,0.39c0.1-.07.21-0.2,0.33-0.31l0-.27-0.24.32a1.86,1.86,0,0,1,.1-0.16,3.4,3.4,0,0,0-.55.36,1.12,1.12,0,0,1,0-.39l0,0c0.06-.25-0.12-0.17-0.31,0l0-.07s-0.14,0-.3.14c0.05-.32.68-1.35,0.33-1a1.62,1.62,0,0,0-.56.82c-0.07-.32-0.5.2-0.44-0.45a1.25,1.25,0,0,1-.18.32c-0.22-.24-0.62.3-0.66-0.5a1.58,1.58,0,0,0,.13-0.62c-0.14.34,0-.38-0.15,0.22A1.78,1.78,0,0,0,78,17c-0.19.15-.39,0.14-0.44-0.21a0.68,0.68,0,0,1-.06.38c0.06-.57-0.05-0.67-0.15-0.48l0,0.35,0-.36c0,0.11-.05.74-0.12,0.41a3.36,3.36,0,0,0,0-.38c-0.09.29-.17,0.78-0.27,0.48l-0.1-.51a1.07,1.07,0,0,0,0,.52,4.22,4.22,0,0,1-.35-0.76v0.35a1.75,1.75,0,0,1-.1.31,1.2,1.2,0,0,1-.29.41l-0.18.13h0l0.17,0h0l0,0,0,0a0.46,0.46,0,0,1-.2.06l-0.09-.25c-0.17-.2.15,0.44,0,0.29A6.33,6.33,0,0,1,75.26,17c-0.24-.21.05,0.49,0,0.62a0.64,0.64,0,0,1,.14.17c0,0.11-.26-0.17,0,0.3A5,5,0,0,1,75,17.37l0.06,0.25c-0.4-.48-0.34-1.06-0.79-1.67l0,0.11c-0.36-.43-0.06-0.67-0.38-0.71a2.57,2.57,0,0,0,.53,1.13c-0.1.21,0.57,1.11,0.41,1.16-0.21-.23.07-0.14-0.19-0.49s0,0.3-.15.22a1.84,1.84,0,0,1,.45.69,1.58,1.58,0,0,0-.37-0.41,1.75,1.75,0,0,0,.42.61c0.39,0.56-.2-0.09.09,0.36a6.37,6.37,0,0,0-.87-1A7.52,7.52,0,0,0,75,18.66a2.57,2.57,0,0,1-.52-0.58c-0.25-.16.45,0.73-0.2,0.07l0.31,0.36-0.43-.32c-0.05,0,.33.6-0.19,0.1,0,0.07-.09.15,0.33,0.44s-0.2-.32.32,0.1c-0.44-.33,0,0.14.09,0.28L74.47,19a0.53,0.53,0,0,0,.2.3A1.22,1.22,0,0,0,74.34,19l0.31,0.29c0.11,0.22-.6-0.44-0.57-0.27l-0.21-.27c0,0.06-.3-0.14-0.23,0l0.88,0.74c0.1,0.14-.37-0.23-0.08,0l-0.33-.33A1,1,0,0,0,73.5,19a1.7,1.7,0,0,0,.72.54,0.66,0.66,0,0,1-.47-0.21,4.34,4.34,0,0,0,.52.41c-0.23-.11-0.61-0.19-1-0.31L72.8,19l0,0.06a6.57,6.57,0,0,0-.82-0.46c-0.1,0,0,.16.12,0.28a15.21,15.21,0,0,1,1.72,1c0.13,0.24-1.8-.71-0.75,0,0.2,0.05.72,0.37,0.56,0.18-0.12.07,0.7,0.37,0.35,0.36a11.38,11.38,0,0,1-1.18-.51c0.24,0.11.22,0,.16-0.05a1.55,1.55,0,0,0-.79-0.2,0.45,0.45,0,0,0,.41.36,1,1,0,0,1,.41.08c0.1,0.19-.56,0,0.18.32a1,1,0,0,1,.71.14L74,20.68l-0.28-.12c-0.26.08,0.5,0.22,0.38,0.32l-0.59-.11c-0.49-.19.29-0.14-0.51-0.38-0.07.1,0.32,0.25,0.09,0.29-0.06,0-.08-0.08-0.14-0.12s-1.11-.24-0.53.11a1.45,1.45,0,0,0,.59.18,3,3,0,0,0,.37.43c-0.6-.15-0.09.18-0.68-0.06,0.35,0,.39-0.23-0.16-0.44-0.72-.11.14-0.12-0.56-0.36a2.32,2.32,0,0,1-1.21-.12,0.34,0.34,0,0,0,.2.19c0.42,0.12.43,0.06,0.87,0.16-0.17.15,0,.39,0.45,0.56A1.14,1.14,0,0,1,71.57,21a0.69,0.69,0,0,1-.16.67c0.73-.06.15,0.25,0.76,0.21a1.79,1.79,0,0,1,1,0,1.82,1.82,0,0,1-.47,0c0.39,0.11-.64.07,0,0.2a4.12,4.12,0,0,0-1.43-.18c0.3,0.18-.4,0-0.41.12a2.52,2.52,0,0,1,.66.54c-0.52.22,0,.54,0,0.72a8,8,0,0,0-1,.23c0,0.14.67-.16,0.4,0.06H70.8c0.15,0-.39.43,0.52,0.36l-0.69,0c-0.06,0,.1.06,0.18,0.08a1.66,1.66,0,0,1-.57.07c-0.44.21,0.13,0.26,0.17,0.39l0.39-.17c0.36,0.16,0,.38.17,0.58l-0.39.1,0.27,0.07c-0.38.07-.59,0.26-0.26,0.25l-1-.1A8.51,8.51,0,0,1,70.41,25c0.31-.15.17-0.32-0.21-0.27,0,0.1.06,0.08,0.21,0.1a1.91,1.91,0,0,1-.91.06s-0.12.15,0.05,0.12a0.35,0.35,0,0,1-.39-0.28,1.21,1.21,0,0,0,.49-0.12c-0.48.09-.66,0-0.56-0.27,0.53-.23-0.41-0.32-0.28-0.58a3.83,3.83,0,0,1,1.12.21c0.23-.16,0-0.15.21-0.31A2.92,2.92,0,0,1,69,23.52l0.36,0c-0.2-.15-0.75-0.12-0.65-0.35a4.81,4.81,0,0,0,.23-1.06h0.36c-0.77-.2-0.25-0.54-0.58-0.79,0.4-.31-0.22-0.87.44-0.94a5.9,5.9,0,0,1-.12-1,2,2,0,0,1,.29-1l0.44,0.31c-0.32-.26.32,0,0.29-0.09a1.11,1.11,0,0,1-.7-0.58c0.5-.12.27-0.66,0.12-1.11l0.32,0.18c-0.45-.61.27-0.61,0.58-0.82a0.61,0.61,0,0,0,.49.11,1.61,1.61,0,0,1-.32-1A1.11,1.11,0,0,1,71.33,15,1.52,1.52,0,0,1,72,13.8a5.1,5.1,0,0,0,1-.94l0.25,0.35a1.16,1.16,0,0,1,.48-0.65,1.78,1.78,0,0,1,.33-0.18l0.09,0,0,0,0.19-.06,0.13,0a2.33,2.33,0,0,0,1.12-.36l0.05,0.73c0.28,0.18.55-.27,0.43-0.78,0.31,0.17.62-.39,0.8,0.2,0.24,0.13.3-.34,0.52-0.44a1.26,1.26,0,0,0,1.16.19l-0.11-.06a0.54,0.54,0,0,0,0,.52c0.2-.17.57,0.32,0.58-0.58,0.38,0.57,1.27-.09,1.52.71A0.64,0.64,0,0,1,80.88,12c0.42,0.17.64,0.78,1.11,0.59,0,0.14-.28.31-0.15,0.41a4.56,4.56,0,0,1,.33-0.33c0.87,0,1,1.13,1.49,1.41,1.17,0.32,1.79,1.36,2.47,2.13l-0.15.1c0.75-.1-0.1,1,0.88.72-0.1.16,0.09,0.31-.23,0.43,0.55,0,0,.86.68,0.94,0,0,0,0-.13,0-0.19.52,0.46,0.61,0.27,1.13a0.53,0.53,0,0,0-.33,0c-0.26.26,0.83,0.08,0.06,0.46a0.4,0.4,0,0,0,.38-0.13,1.68,1.68,0,0,0,0,.34l0.1,0.4a2.17,2.17,0,0,0,.26.51,4.52,4.52,0,0,1,.36.63,7,7,0,0,1,.33.75c-0.43.75-1.41,0.22-.73,0.66-0.16.06,0.32,0,.15,0,0.26,0.19-.91.38-0.46,0.48a1.27,1.27,0,0,1,.61.06c-0.33.43-.8,0.5-0.4,0.81l-0.28,0c0.79,0.38.32,0.79,1.19,1.2a11.48,11.48,0,0,1-1.8,6.58,14.93,14.93,0,0,1-2.75,2.48,7.77,7.77,0,0,1-1.71.83L82,35.72l-0.42.11-0.15,0a6,6,0,0,1-.64,0c-0.84-.58-0.83-0.56-1.51-0.2a0.34,0.34,0,0,0,0-.25c0,0.59-.43.07-0.47,0.63a19.27,19.27,0,0,1-2.68-.24c0.16,0,.33-0.49.16-0.48l-0.26.33V35.5a0.49,0.49,0,0,0-.27.52,5.16,5.16,0,0,1-3.09-1.49c-0.82-.79-1.47-1.63-2.22-2.32A3.44,3.44,0,0,0,69.32,31c-0.3-1.76-.25-3.08-1.23-4.28A4,4,0,0,1,70.11,26.74Z"/><path class="cls-3" d="M69.42,25.82a1.55,1.55,0,0,1,.8-0.29C70,25.61,69.68,25.76,69.42,25.82Z"/><path class="cls-3" d="M72,22.07c-0.09,0,.12,0,0.17,0s0.27,0.09.11,0.1A0.76,0.76,0,0,0,72,22.07Z"/><path class="cls-3" d="M72.27,21.36a0.63,0.63,0,0,1,.46.32Z"/><path class="cls-3" d="M73.46,21c0.23,0,.34.05,0.32,0.11A1.92,1.92,0,0,1,73.46,21Z"/><path class="cls-3" d="M72.89,20.78a0.39,0.39,0,0,1,.31,0C73,20.71,73.31,20.91,72.89,20.78Z"/><path class="cls-3" d="M74,19.91s-0.17-.19.1-0.07C73.93,19.77,74.36,20.1,74,19.91Z"/><path class="cls-3" d="M74,19.25s0.07,0,0,0a0.59,0.59,0,0,1,.26.21Z"/><polygon class="cls-3" points="82.71 20.21 82.55 20.21 82.79 20.09 82.71 20.21"/><path class="cls-3" d="M83.69,25.71c0.15,0.1-.25,0-0.29,0A1.12,1.12,0,0,0,83.69,25.71Z"/><polygon class="cls-3" points="83.72 29.14 83.73 29.12 84.17 29.43 83.72 29.14"/><ellipse class="cls-2" cx="93.73" cy="90.48" rx="7.46" ry="8.92" transform="translate(-11.68 13.93) rotate(-8)"/><path class="cls-3" d="M85.36,89.49c0.14,0.18.45-.15,0.21,0.1C85.36,89.59,85.2,89.57,85.36,89.49Z"/><path class="cls-3" d="M85.8,90.27a0.88,0.88,0,0,1,.85.87,0.84,0.84,0,0,0,.58.91c0.09,0-.7.27-0.46,0.37,1.23,0.18,1.1,1.22,1,2.43l-0.2.09c0,0.23.66-.07,0.69,0.12a1.29,1.29,0,0,0-.31.25c0.35-.25.35,0.11,0.63-0.06-0.07.16-.32,0.39-0.39,0.58l0.42-.27c1-.63.41,0.51,1.09,0.29a0.73,0.73,0,0,0-.21.23,5.68,5.68,0,0,1,2,.3,2.55,2.55,0,0,0-.29.61,0.84,0.84,0,0,1,.65-0.53c-0.12.51,0.41-.34,0.48,0l0,0.1c0.29-.49.1,0.36,0.38-0.25l0,0.42c0.23-.71.1,0.43,0.29,0.08l0-.15c0.13-.16.12,0.21,0.23,0.1v0.08c0.25-.16.33,0.28,0.38-0.3a4.32,4.32,0,0,0-.19.86,7.11,7.11,0,0,1,2.3-.66,1.85,1.85,0,0,1,.3.45,0.73,0.73,0,0,0,.22-0.5,0.62,0.62,0,0,0,.2.27c0.22,0.15-.1-0.65.14-0.47a1.21,1.21,0,0,0,.17.53,0.81,0.81,0,0,1,.21-0.67,0.88,0.88,0,0,0,.1.32c-0.08-.52.33-0.07,0.3-0.42l0.12,0.32c0.43,0.21-.31-0.63,0-0.54a1.08,1.08,0,0,0,.17.33,1.15,1.15,0,0,1,.21-0.91A0.33,0.33,0,1,0,98.27,95c0.16,0,.55.6,0.63,0.35-0.48-.45.05-0.47-0.59-0.88,0.19-.06.58-0.12,0.47-0.36a2.67,2.67,0,0,1,.66.58l0.4,0.14c0.21,0.18-.15.06,0.15,0.23a0.62,0.62,0,0,1,.1-0.46,3.94,3.94,0,0,1-.77-1.13,7.37,7.37,0,0,0,.72.45l-0.47-.47L99.08,93c0-.08.47,0.24,0.37,0.06a1.58,1.58,0,0,1-.35-0.26c0.09,0,0-.34.58-0.09a1,1,0,0,0,.32.19c0.05-.14-0.15-0.23-0.1-0.37l0.08,0c0.13-.05-0.15-0.36-0.53-0.4,0,0,.38.13,0.16,0.14a0.49,0.49,0,0,1-.34-0.5,2.1,2.1,0,0,0,.42.21,2.6,2.6,0,0,1-.67-0.8c-0.3-.09.53,0.23,0.36,0.21,0.49-.13-0.47-0.64.2-0.69a1.24,1.24,0,0,1-.35-0.06c0.07-.1.5,0,0.35-0.12,0.26,0-.07-0.11-0.14-0.2s0.13,0,.15.07c-0.2-.16-0.53-0.62-0.15-0.84a1.28,1.28,0,0,1-.61-0.25l0.41,0c0.25,0,0-.19.33-0.19-0.49-.15.39,0.51,0,0.32,0.35,0-.64-0.27-0.08-0.21,0-.13-0.48-0.22-0.09-0.32a0.83,0.83,0,0,0,.54,0,0.75,0.75,0,0,0-.34-0.17l-0.17-.07c-0.4,0,.06-0.14-0.39-0.05,0.33,0-.2-0.2.45-0.26l0.52,0a3.15,3.15,0,0,0-.8-0.13,0.93,0.93,0,0,1,.23-0.05c-0.8.06,0-.21-0.58-0.25A0.33,0.33,0,0,0,99,87.8a0.62,0.62,0,0,0,0-.08V87.65h0v0.09h0a0.34,0.34,0,0,1,.3-0.24c-0.26-.08-0.56-0.12-0.42-0.28a0.61,0.61,0,0,0,.28,0c0.22-.13,0-0.11-0.13-0.15a3,3,0,0,0,.67-0.43,2.62,2.62,0,0,0-.93.14c0.73-.31-0.57-0.16.08-0.49a0.81,0.81,0,0,0,.58-0.1c0.73-.35-0.62,0-0.32-0.31l-0.6.26c0.36-.21-0.44-0.09.19-0.31-0.24,0,.14-0.27-0.45,0,0.39-.46-0.55-0.42.39-1.1-0.11,0-.07-0.12-0.35.05s0.27,0,.07.09a0.66,0.66,0,0,0-.27.09,0.8,0.8,0,0,1,.6-0.41c0.24-.37-1,0.37-0.94,0,0.23-.13.31-0.2,0.23-0.24l-0.45.14a2.1,2.1,0,0,1,.82-0.66,0.38,0.38,0,0,0-.45,0l0.39-.42c-0.28.31-.26,0.1-0.37,0.14l0.11,0c0.15-.13,0-0.14-0.09-0.14a0.8,0.8,0,0,0-.27.42c-0.18.08-.19,0-0.4,0.11,0.36-.26.16-0.3,0.15-0.37a0.69,0.69,0,0,0-.35.17,0.63,0.63,0,0,1,.23-0.28c0.07,0-.13.19,0,0.09s0.4-.4.11-0.29-0.63.59-.52,0.3c0.11,0,.24-0.16.37-0.24L97.46,83l-0.3.27c0.06-.08.1-0.1,0.13-0.14a3.45,3.45,0,0,0-.59.26,1.13,1.13,0,0,1,.08-0.37l0,0c0.11-.23-0.08-0.18-0.31,0L96.57,83s-0.13-.06-0.31.09c0.11-.3.92-1.21,0.51-0.89a1.67,1.67,0,0,0-.7.71c0-.32-0.52.12-0.33-0.5a1.31,1.31,0,0,1-.24.28c-0.16-.27-0.64.19-0.53-0.6a1.66,1.66,0,0,0,.23-0.58c-0.19.31,0.05-.38-0.18,0.19a1.87,1.87,0,0,0-.18.67c-0.2.11-.39,0.07-0.38-0.27a0.72,0.72,0,0,1-.12.37c0.17-.55.07-0.67-0.05-0.5l-0.09.34,0-.36c-0.06.11-.18,0.72-0.19,0.38a3.53,3.53,0,0,0,0-.38c-0.14.27-.3,0.74-0.34,0.43V81.81a1.16,1.16,0,0,0-.06.51,5,5,0,0,1-.19-0.81l-0.06.35a1.61,1.61,0,0,1-.15.28,1.17,1.17,0,0,1-.35.36l-0.19.09h0l0.18,0h0l0,0,0,0a0.4,0.4,0,0,1-.2,0l-0.05-.26c-0.13-.23.07,0.45,0,0.28a6.71,6.71,0,0,1-.21-0.83c-0.19-.25,0,0.49-0.05.62a0.67,0.67,0,0,1,.1.2c0,0.12-.22-0.21-0.06.29a5.35,5.35,0,0,1-.26-0.76l0,0.26c-0.31-.54-0.16-1.1-0.5-1.78l-0.06.1c-0.27-.49,0-0.66-0.26-0.76a2.66,2.66,0,0,0,.33,1.2c-0.12.19,0.37,1.19,0.22,1.21-0.16-.26.08-0.12-0.11-0.51s-0.05.29-.17,0.18a2,2,0,0,1,.32.76,1.66,1.66,0,0,0-.3-0.47,1.86,1.86,0,0,0,.31.67c0.29,0.62-.18-0.13,0,0.37a6.73,6.73,0,0,0-.68-1.17,7.84,7.84,0,0,0,.6,1.18,2.75,2.75,0,0,1-.42-0.66c-0.22-.2.33,0.79-0.2,0l0.25,0.4-0.37-.39c-0.06,0,.24.64-0.2,0.06a0.48,0.48,0,0,0,.25.48c0.25,0.19-.15-0.34.29,0.16-0.38-.4,0,0.13,0,0.29l-0.18-.21a0.55,0.55,0,0,0,.15.32,1.28,1.28,0,0,0-.28-0.3L91.45,84c0.07,0.23-.51-0.53-0.51-0.36l-0.16-.3c0,0.06-.27-0.19-0.22-0.06l0.75,0.87c0.08,0.15-.33-0.29-0.08,0L91,83.77a1,1,0,0,0-.56-0.34,1.78,1.78,0,0,0,.63.65,0.69,0.69,0,0,1-.42-0.29,4.51,4.51,0,0,0,.45.48c-0.21-.14-0.56-0.3-0.9-0.47l-0.44-.48-0.05.05a6.84,6.84,0,0,0-.73-0.59c-0.1,0,0,.16.08,0.29a16,16,0,0,1,1.53,1.28c0.1,0.25-1.65-1-.73-0.15,0.19,0.09.65,0.48,0.52,0.27-0.13,0,.63.48,0.29,0.4a11.82,11.82,0,0,1-1.07-.7c0.22,0.14.21,0,.17,0A1.59,1.59,0,0,0,89,83.83a0.45,0.45,0,0,0,.35.41,1.06,1.06,0,0,1,.39.15c0.07,0.2-.55-0.11.13,0.33a1.07,1.07,0,0,1,.68.26l0.12,0.17L90.37,85c-0.26,0,.46.3,0.32,0.37l-0.56-.21c-0.45-.27.31-0.08-0.45-0.45-0.08.08,0.28,0.29,0,.29-0.06-.05-0.06-0.09-0.12-0.14s-1.06-.42-0.54,0a1.5,1.5,0,0,0,.55.27,2.82,2.82,0,0,0,.3.47,1.69,1.69,0,0,1-.66-0.18c0.35,0.06.41-.15-0.09-0.45-0.69-.23.15-0.09-0.5-0.44a2.41,2.41,0,0,1-1.17-.33,0.34,0.34,0,0,0,.16.21c0.4,0.19.42,0.13,0.83,0.31-0.19.12,0,.38,0.35,0.61a1.18,1.18,0,0,1-.65-0.27,0.65,0.65,0,0,1-.27.61C88.66,85.76,88,86,88.64,86a1.85,1.85,0,0,1,1,.14,1.9,1.9,0,0,1-.46-0.1c0.36,0.17-.64,0-0.06.19a4.28,4.28,0,0,0-1.38-.42c0.27,0.22-.39-0.11-0.42,0a2.52,2.52,0,0,1,.56.63c-0.55.12-.1,0.51-0.08,0.69a8.23,8.23,0,0,0-1,.05c0,0.13.69,0,.39,0.13l-0.12,0c0.14,0.06-.46.34,0.45,0.43l-0.69-.08c-0.07,0,.09.07,0.17,0.1a1.71,1.71,0,0,1-.58,0c-0.47.12,0.08,0.27,0.1,0.4l0.41-.1c0.33,0.21-.09.36,0.07,0.58l-0.4,0,0.25,0.11c-0.39,0-.62.15-0.3,0.2l-1-.26c0.22-.12.49,0.06,0.88,0s0.22-.28-0.16-0.29c0,0.09,0,.08.19,0.13a2,2,0,0,1-.91-0.1s-0.14.13,0,.12a0.34,0.34,0,0,1-.33-0.33,1.25,1.25,0,0,0,.5,0c-0.49,0-.64-0.15-0.51-0.35,0.56-.13-0.35-0.38-0.18-0.6a3.93,3.93,0,0,1,1.07.39c0.26-.12,0-0.14.25-0.26A3,3,0,0,1,85.22,87l0.36,0c-0.17-.18-0.72-0.24-0.58-0.44a4.4,4.4,0,0,0,.4-1l0.36,0.07c-0.72-.32-0.16-0.56-0.44-0.86,0.45-.23-0.07-0.87.58-0.83a5.88,5.88,0,0,1,0-1,1.92,1.92,0,0,1,.43-0.87l0.39,0.38c-0.27-.31.3,0.1,0.3,0a1.13,1.13,0,0,1-.59-0.69c0.51,0,.37-0.59.29-1.05L87,80.95c-0.34-.67.36-0.54,0.69-0.69a0.62,0.62,0,0,0,.46.19A1.6,1.6,0,0,1,88,79.37a1.08,1.08,0,0,1,.85-0.16,1.47,1.47,0,0,1,.84-1.07,4.91,4.91,0,0,0,1.16-.74l0.18,0.39a1.13,1.13,0,0,1,.57-0.55A1.71,1.71,0,0,1,92,77.13l0.09,0h0l0.19,0h0.13a2.23,2.23,0,0,0,1.14-.15l-0.08.73c0.24,0.23.57-.17,0.55-0.69,0.27,0.23.67-.27,0.74,0.34C95,77.48,95.14,77,95.37,77a1.22,1.22,0,0,0,1.08.39l-0.09-.08a0.56,0.56,0,0,0-.11.51c0.22-.13.49,0.41,0.66-0.47,0.26,0.62,1.25.13,1.33,1A0.65,0.65,0,0,1,98.58,78c0.37,0.24.47,0.87,1,.76,0,0.14-.33.25-0.22,0.38a4.63,4.63,0,0,1,.38-0.27c0.85,0.1.72,1.26,1.17,1.62,1.07,0.5,1.49,1.61,2,2.47l-0.16.07c0.75,0-.29,1,0.73.84-0.13.14,0,.32-0.31,0.38,0.54,0.1-.17.82,0.5,1,0,0,0,0-.12-0.07-0.28.47,0.34,0.66,0.06,1.13a0.54,0.54,0,0,0-.32-0.06c-0.3.21,0.8,0.21,0,.45a0.41,0.41,0,0,0,.4-0.06,1.6,1.6,0,0,0,0,.34V87l0,0.18v0.13a2,2,0,0,0,.16.53,4.26,4.26,0,0,1,.24.66,6.8,6.8,0,0,1,.2.77c-0.55.64-1.43,0-.83,0.51-0.17,0,.32.05,0.14,0,0.22,0.22-1,.21-0.53.38a1.31,1.31,0,0,1,.59.16c-0.4.35-.87,0.34-0.53,0.71l-0.27-.07c0.71,0.5.18,0.81,1,1.35a11.21,11.21,0,0,1-2.79,6,14.49,14.49,0,0,1-3.07,1.94,7.52,7.52,0,0,1-1.79.52l-0.47.06-0.44,0H95.08a5.82,5.82,0,0,1-.61-0.09c-0.72-.72-0.72-0.69-1.43-0.46a0.34,0.34,0,0,0,0-.25c-0.1.58-.42,0-0.57,0.54a19.15,19.15,0,0,1-2.55-.7c0.16,0,.41-0.42.24-0.45l-0.32.28,0-.16a0.5,0.5,0,0,0-.35.46,5,5,0,0,1-2.71-2c-0.65-.9-1.11-1.83-1.72-2.63a3.24,3.24,0,0,0-.92-1.4c0-1.74.33-3-.43-4.32A4.11,4.11,0,0,1,85.8,90.27Z"/><path class="cls-3" d="M85.28,89.27a1.6,1.6,0,0,1,.84-0.15C85.85,89.16,85.55,89.26,85.28,89.27Z"/><path class="cls-3" d="M88.47,86.13c-0.08,0,.13,0,0.17,0s0.25,0.13.09,0.12A0.79,0.79,0,0,0,88.47,86.13Z"/><path class="cls-3" d="M88.84,85.5a0.64,0.64,0,0,1,.4.38Z"/><path class="cls-3" d="M90.06,85.35c0.22,0,.33.11,0.3,0.16A2,2,0,0,1,90.06,85.35Z"/><path class="cls-3" d="M89.53,85.06a0.4,0.4,0,0,1,.31,0C89.64,85,89.93,85.26,89.53,85.06Z"/><path class="cls-3" d="M90.78,84.44s-0.14-.21.1,0C90.7,84.28,91.07,84.69,90.78,84.44Z"/><path class="cls-3" d="M90.79,83.8s0.06,0,0,0A0.62,0.62,0,0,1,91,84Z"/><polygon class="cls-3" points="98.8 86.18 98.65 86.15 98.9 86.08 98.8 86.18"/><path class="cls-3" d="M98.82,91.56c0.13,0.12-.25,0-0.29,0A1.16,1.16,0,0,0,98.82,91.56Z"/><polygon class="cls-3" points="98.33 94.86 98.35 94.83 98.73 95.21 98.33 94.86"/><path class="cls-2" d="M18.72,51.77L19,51.85c27.24,7.28,53.48,28,68.28,57,9.46,18.49,12.77,37.44,10.64,54.27l-8.58-7.72c0.49-13.76-2.83-28.83-10.39-43.61C65.72,85.81,42.64,67,18.72,60.08c-3.13-1.53-3.47-3-3-5.27,0.46-2.42,2-3,3-3h0Z"/><path class="cls-3" d="M19.69,50a0.73,0.73,0,0,0-.43,0,0,0,0,0,0,0,0h0s0,0,0,0v0l0.06,0.08c0.09,0.1.2,0.14-.43-0.16a0.64,0.64,0,0,1,.33-0.16A0.57,0.57,0,0,1,19.69,50Z"/><path class="cls-3" d="M15.36,52.54a19.66,19.66,0,0,0,0,2,5.63,5.63,0,0,0,.35,1.94,6.06,6.06,0,0,0,3,2.72h0a17.49,17.49,0,0,0,4.1,1c0.45,0.09-.35.65,0.66,0.84,3.88,0.24,9.11,3.27,12.65,6.16l-0.34.06c0.67,0.55,1.92.48,2.66,1-0.07.12-.35,0-0.27,0.3,0.41-.25,1.52.66,2,0.58a10.28,10.28,0,0,0,.31,1L41.18,70a3.37,3.37,0,0,1,2.4,1A9.61,9.61,0,0,0,46,72.68c-0.14,0-.35,0-0.29.17a23.13,23.13,0,0,1,4.54,2.68c1.5,1.09,3,2.24,4.42,3.37a0.5,0.5,0,0,0-.49.46c0.47-.27,1.38.37,2.17,0.94,0,0.66,1.54.77,2.15,1.78H58.39c1,0.19.66,1.09,1.61,1.1l0.09,0.66c0.79-.27.59,1.11,1.32,1.37l0.09-.12c0.57,0.35.53,0.86,1,1.22l0,0.1c1.1,0.91,1.36,1.79,1.76,1.38,0,0.67-1.09-.87-1.06.15a27.72,27.72,0,0,1,2.53,2.43c0.8,0.86,1.63,1.71,2.35,2.64,1.46,1.86,2.91,3.73,4.2,5.69a2.18,2.18,0,0,1,.12,1.11A10.28,10.28,0,0,0,74,101.42c-0.09-.13-0.09.42,0,0.64,0.26,0.84,1,.46,1.29,1.39-0.33-.24-0.55-0.25-0.67,0a8.39,8.39,0,0,1,1.91,2.12,0.46,0.46,0,0,0-.47-0.13c1,0.63.82,1.69,1.54,2.32l-0.45-.14c0.34,1.46.82,0,1.21,1.26-0.24-.21-0.3-0.06-0.44,0a5.54,5.54,0,0,1,1.41,1.64c0.4,0.68.73,1.36,1.09,1.84a0.14,0.14,0,0,0-.15,0c0.65,1.1,1,2.41,1.84,3.57,0.07,0.52-.8.17-0.17,1.36,0.59-.31,1.14,2,1.53,1a16.47,16.47,0,0,0,1.24,3.55c-0.41-.4-0.57.81-1-0.07l-0.14.82c-0.29,0-.16-0.73-0.41-0.39a13,13,0,0,1,.93,2.09,7,7,0,0,1,2.17,2.6c-0.45-.57-0.59.58-0.84,0.18,0,0,.46.38,0.9,0.78l0.89,0.79c0.16,0.46-.48.24-0.12,0.87a0.75,0.75,0,0,1,.55.35c0,0.19.65,1.91,0.06,2.27-0.2.27-.32-0.73-0.42-0.15,0.22,0.86.46,0.84,0.65,1.71l-0.08,0c0,0.59.64,1.63,0.86,0.93-0.07-.41-0.35.23-0.3-0.4a3.86,3.86,0,0,1,1,2.2,0.66,0.66,0,0,0-.53-0.3,13.28,13.28,0,0,1,1.52,3.62c0.31,0-.64-0.41-0.5-0.63-0.15,1.76,1.1,3.46.61,5-0.07-.23.43-0.17,0.35-0.14,0,0.84-.42.84-0.21,1.36-0.26.08,0.15,0.67,0.27,1.22,0.2,0.28-.11.15-0.18-0.33a14.09,14.09,0,0,1,.45,5.68,2.55,2.55,0,0,1,.6,1.54l-0.41-.17a4.59,4.59,0,0,0-.17,1.24L90.59,153a0.24,0.24,0,0,1,0,.27c0.27,0.06.18-.06-0.06-0.25l0.59,1.39c0-.83-0.41-2.87-0.15-2-0.35.3,0.62,1.68,0.07,1.41a3.54,3.54,0,0,0,.06.58l-0.58-1.37a2.74,2.74,0,0,1,1.37,1.19c-0.12-.2-0.87,0-0.36.4,0.91,0.72.38,0.07,1.17,0.6l0.55,0.27c0.3-.27.73,0.73,0.71,0.11-0.12.34,1.39,1,.85,1.39l-0.47.28a3.2,3.2,0,0,0,1.42.23,0.32,0.32,0,0,1,0,.29c0.6-.54.84,0.85,1.7,0.79,0.47,0.71,1.41,1.42,1.8,2L96,161.84a0.94,0.94,0,0,1,.28-0.43,4.69,4.69,0,0,1-.1-2.43,0.69,0.69,0,0,0,.22.5,1.34,1.34,0,0,0,0-1.22,7.63,7.63,0,0,0,.86-1.71c-0.19-.8-0.64-0.55-0.9-0.64,0.83-.69-0.45-2.22.29-3.1,0.1,0.27.36,1.15,0.58,0.5,0.82-.72-0.57-1.46-0.21-2.61L96.4,151c0.4-.52-0.41-1.68.26-1.59-0.24-.38.15-1.37-0.48-1.21,0.47-1.93-.66-4.55.35-5.83-0.14-.26-0.12-0.95-0.43-0.77-0.29.49,0.34,0.6,0.12,0.79a0.35,0.35,0,0,0-.33-0.29c0.07-.6.05-1.07,0.65-0.58,0.21-1.36-1.23-1.21-1.25-2.89,0.27,0,.35-0.11.23-0.58l-0.6-.84c-0.08-1.08.49-.71,0.93-0.82a2.47,2.47,0,0,0-.68-1.45l0.41-.8c-0.29.59-.36-0.41-0.53-0.66l0.16,0.24a1.68,1.68,0,0,0-.21-1.1,1.79,1.79,0,0,0-.23,1.22c-0.25-.25-0.3-0.71-0.61-1,0.47,0,.08-1,0-1.44a1,1,0,0,0-.55-0.64c0.22-.07-0.17-0.84.24-0.52a1.3,1.3,0,0,0,.15.69c0.08-.38.47-0.44,0-1.07-0.34-.47-0.8.35-0.79-0.71a2.33,2.33,0,0,0,.56.4V129l0-.5-0.4.07a0.36,0.36,0,0,1,.16-0.15C93,128.25,93,127,92.48,127a11.26,11.26,0,0,1-.12-1.52l0.06,0.08a2.23,2.23,0,0,0-.74-1.66h0.09a2.87,2.87,0,0,0-.7-1.28c0-.83,1.34-0.75.57-1.4-0.29-.75-1.12-0.92-1.25-0.53-0.22-1.45-1.45-2.7-1.37-4.16a0.7,0.7,0,0,1-.52-0.32c-0.69-2-2.18-3.78-2.26-5.68,0.42,0.48.38-.14,0.58-0.25-0.55-.3.06-0.72-0.57-0.61a0.59,0.59,0,0,0-.35.84,17.68,17.68,0,0,1-1.07-1.84,4.79,4.79,0,0,1-.58-1.63c0,0.38-.21.2-0.43,0,0.55-.19.18-1-0.33-1.57l-0.35.09,0.1-.58c-0.23-.18-0.78.1-0.82-0.67a0.68,0.68,0,0,0,.23-0.37c-0.6-.49-1.58-1.09-1.72-1.91l0.1-.81c-0.22-.26-0.78-0.57-0.6,0-0.44-1.3-.86-2.06-0.71-2.66a12.8,12.8,0,0,1-3.08-2.78c-0.47-.56-0.9-1.16-1.34-1.73S74.41,92.86,74,92.32l0.26-.1c-0.24-.72-0.59,0-0.75-0.52,0.34,0,.1-0.77.69-0.51-0.41-1-1.17-.77-1.67-1.23-0.33.14,0.5,0.29,0.08,0.46-0.16,0-.65-1.3-1.18-1.08a0.63,0.63,0,0,1,.68-0.45l-0.61-.32c0-1,2,.65,2-0.45l-0.44-.4c0.06-.78,1.49.8,0.67-0.45-0.62-.33-1.56-0.26-1.37.32-1-.92-1.36.33-2.24-0.77,0-.49.79,0.81,0.94,0.33-0.11-.78-1-0.87-1.32-1.42,0.28,0.63-.48.55-0.83,0.3-0.28-.71.68,0,0.05-0.78-0.33.07-1.11-.48-0.74,0.27-0.74.17-.58-0.9-1.34-0.95,0.13-.57,1.54,0,0.95-1-0.22.44-1.41-.57-1.51,0.32a0.42,0.42,0,0,1,.46-0.65c-0.22-.65-1.65-0.52-1.13-1.3l-0.49.17c0-.25-0.13-0.53-0.17-0.95-0.36-.42-1.72-0.79-1.17-1.27-0.18-.07-1.07-1-1.06-0.27,0.35,0.76.9,0.36,0.74,1.14,0-.77-0.86-0.73-1.31-0.9l0.14-.25a2,2,0,0,0-1-.47c0.26,0,.31-0.18.2-0.38l-0.49.11c-0.93-.6.32-0.72-0.53-1.36l0.81,0.32A3,3,0,0,0,60.75,77c-0.4.14-1,.24-1.32,0.36-0.56-.26.09-0.5-0.62-0.59l0.89,0.16a1.26,1.26,0,0,0-.58-1.33c-0.48-.24-1.44-0.33-1,0.35-0.31-.26-0.58-0.8-0.15-0.81-0.77-.49-0.18.39-0.93,0.06-0.07-.4-0.59-1.34-0.81-2l1,0-0.41-.36c0.87,0.07,0-.54.63-0.7a2.06,2.06,0,0,0-1.09-.57c0.32,1.35-1.72.17-2,1-1.3-.74.45-2.1-1.54-2.07,0.07,0.32-.87.35,0,0.75-0.68-.64-1,0.25-1.63-0.68,0.83,0.23-.21-1.18,1-0.84-0.22.16,0.4,0.56,0.58,0.62-0.12-.48.55-0.59-0.21-1.18-0.5-.3-1.18-0.73-1.33-0.33s0.76,0.47.18,0.63c-1-.53-0.79-1.21-1.65-0.83a0.69,0.69,0,0,1,.31,1.1l-0.8-.33,0.31-.15c-1-1-.64.22-1.66-0.6l-0.16-.85c0.55-.24,1.43,1.28,1.72.46-0.68-.52-1.16-0.33-1.69-1,0.19,0,.4.17,0.59,0.21-0.24-.19.15-1.31-1.24-1.45-0.68-.13-0.3.16-0.49,0.41-1.22-.65-1.73-0.6-2.5-1,0.48-.42-1.29-0.88-0.13-0.89a3.26,3.26,0,0,0,2.62,1.34c0-.87.87,0.65,1.5,0.23-0.9-.65-0.48-1.19-0.37-1.68a1.73,1.73,0,0,0-.81-0.23c-0.35.3,0,.51-0.23,0.9a5.28,5.28,0,0,0-2.93-1.19c-0.24-.41.1-0.71,0.54-0.49a39.53,39.53,0,0,1-3.83-2.3c0.44,1.07-1.45-.61-1.19.21,0.58,0.51.88,1.26,0.37,1.35-0.38-.27.17-0.27,0.07-0.5-0.7.06-.5-1-1.31-0.74,1.28,0.45.64-.64,1.12-1-1-.2.23-0.33-0.62-0.81a20.77,20.77,0,0,1-3.22-.84,5.56,5.56,0,0,0-2-1.23c-0.8-.28-1.61-0.47-2.17-0.7-0.47-.51.18-0.93-0.42-1.3-0.75-.31.29,0.87-0.71,0.13l0.16-.07c-0.39,0-1.87-1.28-2.54-.52l0.59-.52a1,1,0,0,0-.64-0.05c0.07-.21-0.1-0.49.29-0.51-0.54-.7-1.5-0.46-2.26-0.72l0.36,0.56C25,53.75,24.34,53,23,52.76l0.15-.37H22.31c0.3-.32-0.33-0.76-0.83-0.57l2.27-.34c0.49,0.39-.74.28-0.51,0.76a1.23,1.23,0,0,0,.82.45,1.05,1.05,0,0,0,.89,0,1.26,1.26,0,0,0-.87-0.12c0-.59.69-0.32,1.14-0.55a0.9,0.9,0,0,0-.64-0.2,3.59,3.59,0,0,1,1.82.31c-0.6,0,.18.43-0.07,0.51,0.22-.44,1-0.31,1.93.17a1.56,1.56,0,0,0,1.29.52,4.45,4.45,0,0,1,1.68.43,4.07,4.07,0,0,1-2.07.31c0.59,0.51.76,0.31,1.34,0.82a2.66,2.66,0,0,1,1.9-.45l-0.1.36c0.88,0.17,1.1-.33,2.09.21,1.66,1,3.42,1.87,4.71,2.54L39,57.85c1.1-.35,2.5,1,3.63,1.27a14.35,14.35,0,0,0,2.45,1.44,3.84,3.84,0,0,1,1.7,1.36,47.22,47.22,0,0,1,4.17,2.29,35.64,35.64,0,0,1,4,2.77L54.13,67c0.71,0.06.13,0.49,0.65,0.79-0.29-.76,1,0.07,1.52.07,0.94,1.26,2.78,2.08,4,2.71l-0.2.31c1.47,0.38,2.34,1.88,3.51,3.1a1.4,1.4,0,0,0,.42,1,8,8,0,0,1,2.62,1.24,17.09,17.09,0,0,1,1.22,1.32,15.46,15.46,0,0,1,1,1.5c3.2,2.1,5.3,5.34,8.1,8.05l-0.17.49c3.08,2.38,5.06,6.68,7.18,9.12l-0.78.13c0.34,1,1.36,1.84,1.67,1.35,0.34,1,1.63,2,1.45,2.82,0.4,1,.9.94,1.41,1.64A20.58,20.58,0,0,0,90,107l-0.17-.44a0.25,0.25,0,0,0-.36,0,0.23,0.23,0,0,0-.07.16,1.52,1.52,0,0,0,.07.31c0.5,0.55,1,2.44,1.45,1.42a6.62,6.62,0,0,0,.58,1.54c0.25,0.53.54,1.08,0.83,1.62a8.25,8.25,0,0,1,1.19,3.25c0.16-.25.39,0.21,0.62,0.35,0.73,1.69.92,3.68,1.8,4.92,0,0.31-.54-0.3-0.31.41,0.24,0.39.3-.1,0.61,0.38,1.37,2.7,1.41,5.89,2.16,8.47a63.13,63.13,0,0,1,2.79,14.2l-0.18,0c0.85,1.49-.4,3.67.67,4.85-0.13.37,0,1.41-.38,1.14,0.5,1.23-.38,3.45.15,5.25a0.85,0.85,0,0,0-.08-0.45c-0.41,1.79,0,3.41-.51,5.28a1,1,0,0,0-.25-0.62c-0.4.7,0.56,1.81-.32,2.12,0,0.42.39,0.35,0.4,0.09-0.07.4-.14,0.79-0.2,1.21l-0.74,5L96.26,164c-2.63-2.58-5.82-4.84-8.76-7.24l-0.12-.15L86.23,155l0.17-.79c0.56-2.57,1.38,0,.8-2.27,0.17-.19-0.32-0.14-0.14-0.17-0.25-.88.92-1.4,0.47-2-0.52.27-.3-0.41-0.61-0.41,0.25-1.79.73-2.19,0.21-3.57l0.28,0.09c-0.89-1.59-.7-3.54-1.77-4.8A91.76,91.76,0,0,0,77.31,116c-0.42-1-.91-2-1.38-3l-0.32-.65-0.4-.74-0.81-1.48c-0.54-1-1.07-2-1.63-2.91l-1.68-2.71c-0.54-.91-1.15-1.8-1.77-2.7L67.5,99.17,65.57,96.5c-0.63-.9-1.26-1.81-1.95-2.68A6.53,6.53,0,0,0,61,90.11c0.15,0,.27.08,0.24-0.11-0.52.31-1.14-1.15-1.7-.93-0.54-.62-1.08-1.22-1.62-1.81l-1.72-1.65L54.44,84l-1.86-1.63c0.44,0.31,1,.13.46-0.27l-0.75-.16,0-.2c-0.38-.22-0.93-0.32-0.72.12l-1.23-1-1.25-1q-1.24-1-2.45-2L44.19,76c-0.82-.65-1.63-1.32-2.48-1.91l-2.53-1.84c-0.84-.61-1.74-1.15-2.61-1.72a48.94,48.94,0,0,0-5.44-3,17.15,17.15,0,0,0-3-1.5l-1.69-.66-1.62-.52c-1.14-.59-2.24-1.25-3.38-1.74s-2.27-1-3.41-1.48l-0.41-.16a11.37,11.37,0,0,1-2.94-2.27,5.84,5.84,0,0,1-1.19-2.08,6.33,6.33,0,0,1-.26-2.25A10.91,10.91,0,0,1,13.46,53c0-.09.07-0.29,0.13-0.48A5.21,5.21,0,0,1,13.77,52a6.2,6.2,0,0,1,.49-1,5.46,5.46,0,0,1,4.43-2.72l-0.41,0h0l0,0,0.4,0a15.4,15.4,0,0,0-1.44,1.14A6.58,6.58,0,0,0,15.36,52.54Z"/><path class="cls-3" d="M21,50.35c0.14,0.35.83,0.72,0.13,0.93A2.16,2.16,0,0,1,21,50.35Z"/><path class="cls-3" d="M38.61,60.77a0.49,0.49,0,0,1,.23.32,1,1,0,0,1-.64-0.22C38.42,61,38.45,60.82,38.61,60.77Z"/><path class="cls-3" d="M43,63.42A3.28,3.28,0,0,1,41.16,63l0.92,0.22Z"/><path class="cls-3" d="M46.43,66.86c0.22,0.4.06,0.44-.4,0.15A0.48,0.48,0,0,1,46.43,66.86Z"/><path class="cls-3" d="M47,66.54a1,1,0,0,1,.48.69C47.64,67,46.69,66.83,47,66.54Z"/><path class="cls-3" d="M54.87,73.23a1.14,1.14,0,0,1,.76.66C55.55,73.58,54.47,73.42,54.87,73.23Z"/><path class="cls-3" d="M58.76,76a0.6,0.6,0,0,0,.3.25c0.14,0.27-.22.22-0.41,0.09Z"/><polygon class="cls-3" points="96.6 151.84 96.46 151.32 96.72 151.39 96.6 151.84"/><path class="cls-3" d="M90,136.78c-0.26-.5.17-0.41,0.2-0.51C90.32,136.75,89.85,136.15,90,136.78Z"/><polygon class="cls-3" points="82.52 116.74 82.59 116.89 82.07 117.05 82.52 116.74"/><path class="cls-2" d="M153,48.11l-0.24.11c-20.5,9.55-38.35,29.59-46,54.52-4.9,15.93-4.87,31.36-.85,44.36l8.13,5.66c-4.65-15-4.21-36.13-.29-48.87,6.87-22.35,22.5-40.39,40.42-49.22,2.26-1.64,2.32-2.87,1.67-4.58s-2-2.12-2.8-2h0Z"/><path class="cls-4" d="M153.88,49.24c0.77-.51-0.63-0.21.43-0.44a0.58,0.58,0,0,1-.11.32A0.33,0.33,0,0,1,153.88,49.24Z"/><path class="cls-4" d="M155.95,49.81a2.5,2.5,0,0,1,.88,1,2.23,2.23,0,0,1,.24,1.42,4.08,4.08,0,0,1-2,2.34h0a13,13,0,0,0-3.48,2.18c-0.3.25-.29-0.7-0.94-0.1-2.24,2.46-6.58,4.78-10.11,6.67l0-.32c-0.67.37-.91,1.49-1.57,1.92-0.1-.1.06-0.31-0.21-0.34,0.12,0.43-.91,1.11-0.95,1.57a5.9,5.9,0,0,0-1,0v0.66c-0.13,1.65-2.21,2.07-3,3.71,0-.14,0-0.32-0.14-0.3a31.61,31.61,0,0,1-2.54,3.71c-0.95,1.25-1.89,2.55-2.73,3.81a0.57,0.57,0,0,0-.51-0.45c0.32,0.43-.12,1.27-0.51,2-0.64,0-.42,1.4-1.2,2l0-.13c0.07,0.89-.83.7-0.59,1.54l-0.59.15c0.46,0.66-.87.65-0.87,1.34l0.14,0.06c-0.15.55-.6,0.6-0.75,1.11h-0.1c-0.43,1.12-1.13,1.52-.61,1.78-0.61.13,0.39-1.1-.52-0.87-0.76,1.83-1.52,3.67-2.4,5.46l-1.22,2.72c-0.42.9-.82,1.8-1.16,2.72a1.85,1.85,0,0,1-.79.59,6.41,6.41,0,0,0-.3,1.85c0-.13-0.38.14-0.47,0.33-0.44.61,0.35,0.95-.15,1.61,0-.35-0.19-0.51-0.42-0.48a6.13,6.13,0,0,1-.26,2.41,0.41,0.41,0,0,0-.23-0.38c0.19,1-.57,1.48-0.47,2.31l-0.25-.36c-0.72,1.08.57,0.53,0.06,1.49,0-.27-0.19-0.22-0.3-0.29,0.36,1.11-.22,2.61-0.18,3.62a0.16,0.16,0,0,0-.13-0.07,15.8,15.8,0,0,0-.42,3.34c-0.21.4-.78-0.26-0.83,0.89,0.65,0,0,1.95.85,1.38a9.39,9.39,0,0,0-.46,3.1c-0.22-.46-0.85.4-0.84-0.41l-0.45.58c-0.26-.12.14-0.62-0.22-0.46a9.68,9.68,0,0,1,0,2c0.34,0.78,1.08,1.52,1.1,2.73-0.23-.58-0.75.29-0.85-0.1l0.6,0.87c0.29,0.43.61,0.86,0.61,0.86,0,0.4-.53.07-0.36,0.66a0.69,0.69,0,0,1,.42.41c-0.08.15,0.14,1.66-.52,1.84-0.26.18-.13-0.66-0.37-0.21,0,0.74.24,0.78,0.25,1.52l-0.09,0c-0.09.49,0.3,1.44,0.66,0.9,0-.34-0.39.14-0.21-0.37a3.08,3.08,0,0,1,.53,1.93,0.67,0.67,0,0,0-.48-0.31,11.48,11.48,0,0,1,1,3.11c0.31,0-.59-0.38-0.43-0.55-0.35,1.45.82,2.87,0.29,4.1-0.08-.19.43-0.14,0.35-0.12,0,0.68-.42.7-0.2,1.12-0.26.07,0.15,0.55,0.28,1,0.22,0.21-.12.13-0.19-0.26a12.49,12.49,0,0,1,.89,4.57,1.94,1.94,0,0,1,.84,1.1l-0.43-.05c-0.19.35,0.24,1.1-.09,1.22,0.62,0.61-.93-2.64-0.37-1.76-0.29.31,0.89,1.21,0.3,1.11,0.13,0.67.71,1.21,0.49,1.91,0-.19-0.68-0.41-0.53.11,0.29,0.92.25,0.22,0.56,1l0.27,0.44c0.4-.07.14,0.85,0.49,0.39-0.3.2,0.57,1.27-.1,1.36h-0.54a2.58,2.58,0,0,0,1,.75,0.33,0.33,0,0,1-.19.2c0.45-.09.45,0.23,0.5,0.58l0.88,5.81-4-3.55a0.8,0.8,0,0,0-.78-0.27c-0.57-.74-1.84-1.31-1.9-2a3.61,3.61,0,0,1-1.92-.9,0.6,0.6,0,0,0,.49,0,1.1,1.1,0,0,0-.93-0.52,6.39,6.39,0,0,0-.82-1.49c-0.69-.19-0.75.3-1,0.47,0-.62-0.75-0.73-1.33-1l-0.27-.11-0.52-1a1.16,1.16,0,0,1-.14-1.09c0.17,0.21.65,0.87,0.68,0.26,0.59-.83-0.93-1.07-0.82-2.17l-0.57.41c0.28-.55-0.73-1.39-0.06-1.45-0.31-.28-0.07-1.23-0.67-1a9.93,9.93,0,0,0-.38-2.82,3,3,0,0,1,.26-2.4c-0.15-.22-0.11-0.84-0.42-0.67-0.31.45,0.33,0.52,0.11,0.7a0.33,0.33,0,0,0-.33-0.24c0.08-.54.08-1,0.66-0.54,0.26-1.2-1.24-1.06-1.14-2.58,0.27,0,.36-0.08.28-0.51l-0.52-.79c0-1,.56-0.59,1-0.65a2.27,2.27,0,0,0-.47-1.34l0.54-.65c-0.39.47-.29-0.41-0.41-0.64l0.12,0.24a1.3,1.3,0,0,0,0-1,1.44,1.44,0,0,0-.43,1c-0.21-.25-0.18-0.67-0.43-1,0.44,0.11.31-.84,0.35-1.25a0.84,0.84,0,0,0-.38-0.67c0.23,0,0-.77.36-0.4a1,1,0,0,0,0,.63c0.17-.31.56-0.27,0.27-0.91-0.22-.48-0.88.11-0.57-0.8a1.88,1.88,0,0,0,.43.48l0.26-.85-0.4,0a0.39,0.39,0,0,1,.19-0.08c-0.41-.27-0.09-1.31-0.56-1.53a5.8,5.8,0,0,1,.4-1.31l0,0.08a1.79,1.79,0,0,0-.08-1.61l0.09,0a2.52,2.52,0,0,0-.15-1.3c0.37-.66,1.53-0.08,1.11-0.89,0.06-.7-0.62-1.18-0.9-0.93,0.43-1.22,0-2.76.79-3.82a0.64,0.64,0,0,1-.28-0.5c0.46-1.81.29-4,1.39-5.26,0,0.57.38,0.13,0.61,0.17-0.24-.52.49-0.43-0.07-0.73a0.58,0.58,0,0,0-.79.35,6.71,6.71,0,0,1,1-3.3c-0.24.24-.29,0-0.32-0.27,0.53,0.24.84-.51,0.81-1.15l-0.31-.18,0.46-.28a1.49,1.49,0,0,0-.27-0.38,0.42,0.42,0,0,1-.05-0.11c0-.13,0-0.11,0-0.17a0.61,0.61,0,0,1,.21-0.32,0.71,0.71,0,0,0,.42-0.06,3.09,3.09,0,0,1,.26-2.28l0.67-.37c0-.3-0.09-0.88-0.4-0.43,0.66-1,1-1.73,1.54-1.92a9.86,9.86,0,0,1,.43-3.69,25.25,25.25,0,0,1,1.51-3.54L110,89.41c0.49-.48-0.28-0.5.08-0.83,0.14,0.3.7-.21,0.76,0.38,0.62-.71.11-1.26,0.27-1.85-0.27-.24,0,0.53-0.36.23-0.06-.15.83-1,0.43-1.37a0.68,0.68,0,0,1,.68.43l0-.61c0.86-.32.25,1.88,1.25,1.59l0.16-.49c0.71-.17-0.07,1.47.68,0.43,0-.6-0.43-1.38-0.86-1.05,0.41-1.09-.85-1.06-0.23-2.16,0.43-.16-0.4.93,0.09,0.92,0.64-.32.33-1.16,0.74-1.54-0.47.41-.68-0.28-0.57-0.65,0.54-.43.22,0.6,0.73-0.15-0.19-.28,0-1.12-0.51-0.6-0.42-.63.65-0.72,0.44-1.42,0.56,0,.48,1.38,1.2.64-0.48-.1.08-1.39-0.77-1.29a0.43,0.43,0,0,1,.74.28c0.51-.33,0-1.61.87-1.27l-0.3-.41c0.23-.06.46-0.21,0.84-0.31,0.28-.4.34-1.68,0.91-1.24,0-.17.67-1.09,0-1-0.64.42-.14,0.87-0.92,0.83,0.73-.11.5-0.89,0.57-1.33l0.27,0.1a1.85,1.85,0,0,0,.25-1c0,0.24.23,0.27,0.4,0.16l-0.19-.45c0.41-.92.74,0.24,1.21-0.6l-0.16.77a2.46,2.46,0,0,0,.71-0.64c-0.21-.37-0.38-0.91-0.53-1.21,0.19-.54.49,0.06,0.49-0.6l0,0.84a1.13,1.13,0,0,0,1.2-.58c0.16-.45.15-1.36-0.45-0.91,0.2-.3.72-0.54,0.76-0.15,0.41-.72-0.4-0.17-0.14-0.87,0.38-.07,1.24-0.54,1.87-0.72l0,1,0.31-.37c0,0.81.5,0,.7,0.62a1.75,1.75,0,0,0,.47-1c-1.28.19-.23-1.6-1-1.9,0.69-1.18,2,.63,2-1.23-0.31,0-.32-0.86-0.71-0.08,0.62-.56-0.22-1,0.69-1.47-0.24.76,1.12,0,.77,1.06-0.15-.23-0.54.3-0.59,0.47,0.46,0,.55.59,1.12,0,0.29-.43.74-1,0.37-1.17s-0.49.62-.61,0.06c0.58-.87,1.19-0.53.9-1.39a0.66,0.66,0,0,1-1.07.1l0.38-.69L126.51,64c1-.72-0.14-0.64.76-1.43l0.82,0c0.17,0.56-1.38,1.06-.63,1.5,0.56-.52.44-1,1.11-1.36-0.06.16-.2,0.34-0.26,0.5,0.22-.18,1.19.42,1.5-0.81,0.22-.58-0.1-0.32-0.31-0.55,0.79-.95.86-1.42,1.42-2,0.29,0.56,1.08-.9.86,0.15-0.54,0-1.85,1.23-1.73,2,0.82,0.2-.75.61-0.42,1.32,0.7-.68,1.17-0.13,1.6.09a1.35,1.35,0,0,0,.32-0.66c-0.22-.4-0.47-0.15-0.8-0.46A4.44,4.44,0,0,0,132.38,60a0.37,0.37,0,0,1,.34.64,14.16,14.16,0,0,1,3-2.52c-1.08,0,1-1,.16-1.12-0.62.29-1.39,0.26-1.31-.22,0.35-.23.19,0.25,0.42,0.26,0.16-.64,1,0,1.05-0.84-0.78.94,0.37,0.83,0.56,1.4,0.46-.78.22,0.33,0.87-0.2a11.45,11.45,0,0,1,.81-1.19,13.75,13.75,0,0,1,1-1.07c1.28-.26,2.41-1.79,3.31-2.36,0.62-.07.66,0.67,1.22,0.44,0.58-.39-0.81-0.29.22-0.61l0,0.16c0.19-.29,1.82-0.67,1.6-1.61L145.7,52a0.85,0.85,0,0,0,.37-0.42c0.12,0.19.42,0.25,0.23,0.53,0.79,0.09,1.12-.73,1.71-1.09l-0.59-.13c0.89-.86,1.76-1,2.71-1.59l0.15,0.37,0.5-.52c0,0.42.69,0.36,0.87-.09l-1.14,1.67c-0.54,0,.26-0.67-0.19-0.89a1.13,1.13,0,0,0-1.24.85,1,1,0,0,0,.55-0.54c0.37,0.43-.17.72-0.26,1.19,0.17-.12.5-0.12,0.46-0.3a2.64,2.64,0,0,1-1.15,1c0.29-.42-0.38-0.18-0.31-0.4,0.19,0.46-.3.91-1.09,1.21-0.82-.2-1.15,1.15-2.05,1.54a3.3,3.3,0,0,1,.68-1.75c-0.65.13-.57,0.39-1.23,0.52a2.42,2.42,0,0,1-.47,1.69L144,54.58c-0.5.56-.21,1-1,1.44a41.23,41.23,0,0,0-3.69,2.45L139,58.21c0,1-1.56,1.64-2,2.48-1.42.71-2.25,2.48-3.27,2.54-0.94,1-1.69,2-2.55,3s-1.7,1.94-2.68,2.94l-0.08-.71c-0.05.64-.45,0-0.72,0.46,0.7-.14,0,0.88,0,1.35-1.16.65-1.79,2.23-2.21,3.3l-0.31-.19c-0.19,1.27-1.42,2-2.35,3a1.07,1.07,0,0,0-.86.4,7.24,7.24,0,0,1-.54,2.38,13,13,0,0,1-1.93,2.25,21.05,21.05,0,0,1-1.91,4.22,28.6,28.6,0,0,0-1.94,4.26H115.1a16.69,16.69,0,0,1-1.64,4.6,23.94,23.94,0,0,0-1.57,4.24l-0.59-.49c-0.53.68-.43,1.83,0.12,1.8-0.47.7-.31,2-1.05,2.34a1.38,1.38,0,0,0-.17.9,2,2,0,0,1,.07.83,10.59,10.59,0,0,0-1.1,3.74l0.14-.36a0.29,0.29,0,0,0-.55.06c0.06,0.61-.71,2,0.28,1.67a7.6,7.6,0,0,0-.65,2.7,6.08,6.08,0,0,1-.69,2.66c0.26-.1.23,0.31,0.37,0.51-0.19,1.44-.91,2.91-0.6,4.11-0.14.22-.37-0.41-0.45,0.18,0.06,0.36.31,0,.4,0.48a12.54,12.54,0,0,1-.31,3.53,15.39,15.39,0,0,0-.38,3.38c0.45,3.82.53,7.78,1.21,11.36h-0.18a3.24,3.24,0,0,1,.4,2,1.77,1.77,0,0,0,.66,1.72c-0.09.32,0.18,1.08-.2,1,0.58,0.73.35,2.3,0.95,3.47l-1.07-1.46a2.67,2.67,0,0,0,.53.18,0.59,0.59,0,0,0-.36-0.13c1,1.17,2.37,1.48,3.45,2.66a0.81,0.81,0,0,0-.58,0c0.3,0.62,1.6.21,1.39,1.09a0.2,0.2,0,1,0,.26-0.31,28.81,28.81,0,0,0,3.32,2.38l-3.9,2.85c-0.35-1.07-.76-2.15-1.13-3.23s-0.71-2.18-1-3.28c0-2.7,1.37-.43.37-2.35,0.13-.19-0.34-0.07-0.17-0.12-0.38-.75.74-1.38,0.22-1.86-0.48.3-.34-0.32-0.66-0.29,0.09-1.64.54-2,0-3.21l0.28,0.06c-1-1.38-.66-3.13-1.64-4.31-0.67-8.16-.88-16.07.36-24.13,0.39-2,.81-3.95,1.32-5.92L111,103.4l0.1-.37,0.05-.18,0.08-.27,0.22-.68,0.89-2.71c0.27-.89.71-1.88,1.06-2.82s0.73-1.92,1.18-2.81a53.16,53.16,0,0,1,2.79-5.37,6.46,6.46,0,0,0,2.33-3.42c0.06,0.13,0,.26.18,0.19-0.46-.38.68-1.29,0.3-1.75,1.64-2.51,3-4.9,4.87-7.39-0.23.44,0,.92,0.32,0.43l0-.72,0.19,0c0.17-.37.21-0.88-0.2-0.68a46.66,46.66,0,0,1,7.71-8.65C136,63.66,139,61.31,142,59c1.56-.93,3.57-2.53,5.16-3.71l3.48-1.51c1.16-.45,2.29-0.9,3.41-1.38l-0.37.22a4.72,4.72,0,0,0,1.07-.78,0.3,0.3,0,0,1,.1-0.09,0.41,0.41,0,0,0,0-.26,3.31,3.31,0,0,0-.24-0.68,0.24,0.24,0,0,0-.07-0.13l0-.05a0.4,0.4,0,0,0-.11-0.11,0.05,0.05,0,0,0-.06,0s0,0,0-.07l0-.05a0.55,0.55,0,0,0,0-.42l-0.32.72h0l0,0,0.32-.69a1.64,1.64,0,0,1,0,.22v0a1.14,1.14,0,0,1,0-.13,0.85,0.85,0,0,1,.1-0.28,0.71,0.71,0,0,1,.56-0.37A1.12,1.12,0,0,1,155.95,49.81Z"/><path class="cls-4" d="M152.91,49.8c-0.31-.17-1,0-0.68-0.61A2.36,2.36,0,0,1,152.91,49.8Z"/><path class="cls-4" d="M136.63,56.6c0,0.08-.27.07-0.34,0.07a0.79,0.79,0,0,1,.39-0.47C136.51,56.35,136.63,56.44,136.63,56.6Z"/><path class="cls-4" d="M133,59.39a2.52,2.52,0,0,1,.87-1.46s-0.23.36-.44,0.73Z"/><path class="cls-4" d="M129.19,61.49c-0.42.1-.43-0.06-0.07-0.4A0.48,0.48,0,0,1,129.19,61.49Z"/><path class="cls-4" d="M129.4,62.13a0.92,0.92,0,0,1-.71.28C128.86,62.57,129.17,61.74,129.4,62.13Z"/><path class="cls-4" d="M122.56,68.42a1,1,0,0,1-.62.68C122.25,69,122.37,68,122.56,68.42Z"/><path class="cls-4" d="M120.18,72a0.49,0.49,0,0,0-.21.29c-0.25.13-.24-0.2-0.13-0.39Z"/><polygon class="cls-4" points="104.46 145.81 104.21 145.4 104.48 145.4 104.46 145.81"/><path class="cls-4" d="M113.71,131.6c-0.18-.43.23-0.31,0.27-0.39C114,131.61,113.65,131.08,113.71,131.6Z"/><polygon class="cls-4" points="113.26 113.91 113.25 114.05 112.72 113.92 113.26 113.91"/><path class="cls-2" d="M23.85,13.9l0.23,0c19.64,2.91,39.41,13.83,51.63,30.22C83.52,54.63,87,65.68,86.56,75.77L80,71.64c-0.5-8.18-3.77-16.94-10-25.31C59.07,31.64,41.65,21.72,24.37,18.83c-2.3-.74-2.63-1.61-2.47-3a2.07,2.07,0,0,1,1.94-2h0Z"/><path class="cls-3" d="M24.48,12c-0.35,0-.34.12-0.22,0.21s0.1,0.1-.29-0.08a0.54,0.54,0,0,1,.21-0.22A0.27,0.27,0,0,1,24.48,12Z"/><path class="cls-3" d="M21.43,14a9.66,9.66,0,0,0,.23,1.37,3,3,0,0,0,.48,1.2,4.9,4.9,0,0,0,2.19,1.39h0a7.56,7.56,0,0,0,2.79.23c0.3,0-.23.72,0.45,0.67,2.58-.5,6.19,1.1,8.63,2.9L36,21.89c0.47,0.32,1.35-.12,1.87.21,0,0.13-.25.12-0.19,0.35,0.29-.34,1.06.21,1.41,0a6.09,6.09,0,0,0,.22.83l0.5-.32c1.32-.71,2.06,1,3.48,1C43.16,24,43,24,43.05,24.17a12.72,12.72,0,0,1,3.3,1c1.1,0.48,2.18,1.08,3.26,1.54a0.71,0.71,0,0,0-.38.56c0.36-.39,1-0.12,1.62.13,0,0.59,1.16.16,1.63,0.8l-0.12.06c0.76-.18.5,0.7,1.23,0.41l0.05,0.54c0.61-.47.43,0.76,1,0.71l0.07-.13c0.45,0.09.42,0.52,0.81,0.64l0,0.09c0.85,0.4,1,1.05,1.35.58,0,0.56-.83-0.37-0.83.47a29.12,29.12,0,0,1,7.28,5.53,1.32,1.32,0,0,1,.09.82,4.07,4.07,0,0,0,1.27.73c-0.08-.06-0.08.35,0,0.48,0.22,0.54.88,0,1.11,0.61a0.45,0.45,0,0,0-.57.2,3.45,3.45,0,0,1,1.6,1,0.4,0.4,0,0,0-.4.06c0.83,0.17.72,1,1.35,1.21l-0.4,0c0.3,1,.74-0.23,1.06.55a0.37,0.37,0,0,0-.39.1c0.94,0.22,1.54,1.31,2.17,1.77a0.19,0.19,0,0,0-.13.06,16,16,0,0,0,1.66,2c0.06,0.36-.73.37-0.14,1,0.54-.4,1.05,1.08,1.4.24a6.93,6.93,0,0,0,1.18,2.16c-0.39-.16-0.52.73-0.88,0.22L73.21,51c-0.27.08-.16-0.46-0.38-0.16A5.27,5.27,0,0,1,73.72,52a3.93,3.93,0,0,1,2.07,1.2c-0.43-.28-0.55.56-0.78,0.34l1.73,0.61c0.17,0.27-.44.28-0.1,0.62a0.64,0.64,0,0,1,.52.1c0,0.14.7,1.13,0.14,1.52-0.18.23-.32-0.42-0.4,0,0.22,0.53.44,0.47,0.67,1l-0.08,0c0.06,0.38.66,0.95,0.86,0.43-0.08-.26-0.33.24-0.29-0.2a2,2,0,0,1,1,1.27,0.68,0.68,0,0,0-.53-0.08A6.54,6.54,0,0,1,80.16,61c0.3-.08-0.63-0.16-0.52-0.32-0.09,1.2,1.24,2.1.84,3.18-0.09-.14.41-0.18,0.33-0.15,0.1,0.54-.37.62-0.13,0.93-0.25.09,0.17,0.42,0.33,0.77,0.23,0.15-.11.12-0.2-0.19a6.3,6.3,0,0,1,.81,3.68,1.47,1.47,0,0,1,.71,1l-0.42-.08a1.53,1.53,0,0,0-.07.77L81,69.11a0.21,0.21,0,0,1,.07.26c0.22,0,.13-0.12-0.09-0.22l0.82,1.39c-0.12-.58-0.6-1.76-0.28-1.24-0.32.23,0.74,1.05,0.17,0.92a1.47,1.47,0,0,0,.08.32L81,69.17A1.28,1.28,0,0,1,82,69.8c-0.09-.13-0.67.25-0.29,0.46,0.67,0.34.29-.05,0.87,0.16L83,70.47c0.24-.33.54,0.41,0.54-0.12-0.1.33,1,.41,0.61,0.93l-0.37.39a2.24,2.24,0,0,0,1.08-.24,0.34,0.34,0,0,1,0,.26c0.47-.65.62,0.47,1.28,0.15,0.38,0.54,1.25.88,1.42,1.37l-2.84,1.48a0.44,0.44,0,0,1,.13-0.11,2,2,0,0,1-.33-1.52,0.45,0.45,0,0,0,.26.3c0.24-.36,0-0.45-0.1-0.77a4.14,4.14,0,0,0,.72-1.14,0.85,0.85,0,0,0-.94-0.33c0.76-.5-0.61-1.35.06-2,0.13,0.16.44,0.69,0.61,0.26,0.75-.54-0.69-0.86-0.39-1.63L84.09,68c0.37-.38-0.52-1,0.15-1-0.27-.2.07-0.89-0.55-0.7,0.34-1.29-.89-2.76,0-3.76-0.15-.14-0.15-0.59-0.45-0.42-0.27.37,0.35,0.32,0.14,0.49a0.3,0.3,0,0,0-.33-0.13c0-.4,0-0.7.62-0.5,0.17-.93-1.29-0.53-1.36-1.61,0.27,0,.34-0.14.2-0.43l-0.3-.21-0.31-.2c-0.13-.68.44-0.57,0.85-0.73a1.25,1.25,0,0,0-.7-0.8l0.37-.62c-0.25.45-.37-0.19-0.54-0.31l0.17,0.12a0.72,0.72,0,0,0-.26-0.67,1,1,0,0,0-.16.85C81.4,57.28,81.33,57,81,56.85c0.44-.09.06-0.68,0-1s-0.52-.19-0.54-0.28c0.21-.1-0.19-0.51.21-0.41,0.12,0.07-.09.33,0.17,0.42,0.06-.27.44-0.41,0-0.71s-0.75.44-.77-0.27a1.78,1.78,0,0,0,.54.12l0-.66-0.37.15a0.48,0.48,0,0,1,.15-0.14c-0.45,0-.54-0.79-1-0.7a3.89,3.89,0,0,1-.14-1l0.06,0a1,1,0,0,0-.71-0.92l0.08,0a1.28,1.28,0,0,0-.68-0.67c0-.58,1.23-0.9.52-1.14a0.75,0.75,0,0,0-1.16,0C77,48.76,75.94,48.24,76,47.22a0.53,0.53,0,0,1-.47-0.06,9.45,9.45,0,0,0-1.25-1.66,4.57,4.57,0,0,1-.56-0.84,2.23,2.23,0,0,1-.23-0.86c0.38,0.2.33-.22,0.51-0.37-0.49,0,.05-0.53-0.51-0.25-0.27.25-.42,0.33-0.31,0.71a3.76,3.76,0,0,1-1.41-2c0,0.28-.18.22-0.37,0.15,0.49-.33.17-0.84-0.29-1l-0.31.18,0.08-.45c-0.2-.06-0.68.34-0.72-0.21a0.82,0.82,0,0,0,.2-0.35C69.83,40,69,39.85,68.93,39.27l0.1-.65c-0.19-.12-0.67-0.16-0.51.21-0.37-.82-0.73-1.24-0.61-1.75a9.46,9.46,0,0,1-4.59-2.9L63.52,34c-0.19-.48-0.48.19-0.61-0.15,0.28-.1.08-0.64,0.56-0.64-0.33-.64-1-0.2-1.36-0.38-0.27.22,0.41,0,.06,0.33-0.13,0-.53-0.79-0.94-0.45a0.9,0.9,0,0,1,.55-0.59l-0.47-.06c0-.79,1.56-0.13,1.64-1l-0.34-.18c0.06-.66,1.17.17,0.55-0.59-0.49-.07-1.23.3-1.09,0.72-0.75-.43-1.07.71-1.77,0.13,0-.39.63,0.38,0.75-0.07-0.08-.59-0.83-0.33-1-0.67,0.22,0.41-.39.62-0.66,0.53-0.22-.47.54-0.22,0-0.65-0.27.18-.88,0-0.59,0.48-0.6.41-.43-0.56-1-0.34,0.11-.52,1.19-0.5.76-1.13-0.18.44-1.08,0-1.17,0.77a0.51,0.51,0,0,1,.37-0.7c-0.17-.47-1.29.15-0.87-0.68L56.47,29c0-.2-0.1-0.39-0.13-0.72-0.29-.21-1.3-0.1-0.88-0.68-0.13,0-.79-0.48-0.8.11,0.25,0.53.67,0,.54,0.74,0-.66-0.64-0.34-1-0.35l0.11-.26a1,1,0,0,0-.76-0.06,0.26,0.26,0,0,0,.16-0.39l-0.38.26c-0.7-.18.25-0.71-0.39-1h0.61a1.35,1.35,0,0,0-.48-0.51c-0.31.26-.75,0.54-1,0.74-0.41-.05.08-0.46-0.45-0.32l0.66-.14a0.85,0.85,0,0,0-.4-1c-0.35-.06-1.06.16-0.73,0.61-0.22-.13-0.42-0.5-0.1-0.65-0.58-.16-0.14.4-0.7,0.37-0.05-.32-0.43-0.95-0.6-1.46L50.58,24l-0.31-.17c0.65-.23,0-0.46.47-0.81a1,1,0,0,0-.8-0.16c0.21,1.11-1.26.67-1.44,1.47-0.93-.26.36-2-1.1-1.34,0.05,0.26-.64.59,0,0.65-0.49-.34-0.72.54-1.2-0.06,0.61-.07-0.15-1,0.74-1.06-0.16.21,0.29,0.36,0.43,0.35-0.08-.38.41-0.7-0.15-1-0.37-.1-0.84-0.31-1,0.1s0.53,0.21.12,0.52c-0.73-.18-0.55-0.86-1.17-0.27a0.58,0.58,0,0,1,.21.9l-0.56-.06,0.22-.23c-0.69-.57-0.45.37-1.18,0l-0.12-.7c0.4-.4,1,0.7,1.24-0.12-0.48-.28-0.83.06-1.21-0.35,0.13,0,.29,0,0.42,0-0.17-.1.1-1.2-0.89-0.91-0.47.07-.22,0.23-0.35,0.51C42.14,21,41.78,21.18,41.24,21c0.34-.53-0.91-0.42-0.09-0.78a1.48,1.48,0,0,0,1.83.5c0-.8.6,0.37,1.07-0.23-0.65-.3-0.34-0.94-0.26-1.42a0.85,0.85,0,0,0-.57,0,3,3,0,0,0-.17.89A2.29,2.29,0,0,0,41,19.73a0.4,0.4,0,0,1,.38-0.6A10.35,10.35,0,0,1,38.7,18c0.31,0.88-1-.19-0.83.52,0.4,0.31.61,0.95,0.26,1.15-0.26-.15.12-0.29,0.05-0.48-0.48.23-.35-0.79-0.91-0.32,0.89,0,.45-0.78.78-1.26-0.7.1,0.16-.37-0.44-0.56a8.11,8.11,0,0,1-2.21,0c-0.67-.81-2.13-0.62-2.88-0.82-0.32-.38.11-0.92-0.29-1.15s0.2,0.77-.47.28l0.1-.1c-0.26.06-1.28-.77-1.71,0.08l0.39-.62a0.48,0.48,0,0,0-.43.08c0-.22-0.08-0.46.19-0.55-0.37-.57-1-0.15-1.52-0.24L29,14.52c-0.93.12-1.43-.42-2.32-0.41l0.09-.39-0.55.15a0.35,0.35,0,0,0-.56-0.41l1.49-.73c0.33,0.29-.48.4-0.32,0.83A0.74,0.74,0,0,0,28,13.6a0.58,0.58,0,0,0-.58.08c0-.56.45-0.47,0.75-0.78-0.16,0-.36-0.23-0.43-0.06A1.58,1.58,0,0,1,29,12.78c-0.4.13,0.13,0.38,0,.51,0.13-.47.67-0.51,1.29-0.23,0.33,0.67,1.31-.1,2,0.26a3,3,0,0,1-1.4.78c0.41,0.35.52,0.09,0.92,0.46A2,2,0,0,1,33,13.72L33,14.08c0.6,0,.74-0.55,1.41-0.26,1.16,0.48,2.36.91,3.25,1.24l-0.08.36c0.75-.58,1.76.26,2.54,0.21,1,0.76,2.6.59,2.93,1.42,1,0.29,2,.56,3,0.88a17.36,17.36,0,0,1,2.86,1.31l-0.57.31c0.53-.17.09,0.39,0.48,0.49-0.21-.57.73-0.26,1.13-0.42a4.45,4.45,0,0,0,3,1.14l-0.15.34c1.13-.19,1.73.91,2.62,1.57a0.82,0.82,0,0,0,.32.73,3.77,3.77,0,0,1,2,.18,8.33,8.33,0,0,1,1.74,1.62c2.47,0.71,4.15,2.63,6.4,3.88l-0.14.44a9,9,0,0,1,3.23,2.27,23.29,23.29,0,0,0,2.7,2.49l-0.67.37c0.3,0.62,1.19.93,1.45,0.46,0.31,0.61,1.37,1,1.21,1.7,0.35,0.6.8,0.4,1.25,0.76a9.92,9.92,0,0,0,1.94,2.49l-0.16-.28a0.3,0.3,0,0,0-.3.45c0.46,0.25.93,1.5,1.33,0.59a2.49,2.49,0,0,0,.23.5l0.18,0.28,0.16,0.23c0.22,0.3.48,0.58,0.74,0.87a3.75,3.75,0,0,1,1.11,2c0.13-.23.36,0,0.58,0.06,0.71,1,.92,2.37,1.77,3,0,0.23-.5-0.06-0.28.38,0.22,0.21.27-.15,0.57,0.1,1.38,1.51,1.47,3.74,2.3,5.32a31.74,31.74,0,0,1,3.39,9H88.2c0.89,0.87-.15,2.5,1,3.14-0.12.27,0.08,0.94-.29,0.81,0.58,0.76-.13,2.33.54,3.47a0.42,0.42,0,0,0-.12-0.29c-0.28,1.22.27,2.27-.07,3.55a0.62,0.62,0,0,0-.3-0.4c-0.34.48,0.72,1.17-.13,1.42,0,0.28.42,0.21,0.4,0l-0.07.62-0.54,4.59-3.39-2.55a51.59,51.59,0,0,0-6.62-3.65l-0.12-.14-1.47-2,0.09-.37c0.39-1.55,1.35-.09.62-1.43,0.15-.13-0.33-0.05-0.16-0.09-0.3-.52.83-1,0.34-1.32-0.5.23-.32-0.22-0.64-0.18,0.15-1.15.58-1.48,0-2.27h0.28c-1-.86-0.86-2.13-2-2.73-1.74-5.41-4.76-10.06-8.08-14.49L67,47.55l-0.67-.87L64.94,45c-0.91-1-1.72-2-2.71-3s-1.92-2-2.93-2.91-2-1.91-3-2.92c-0.57-1.41-.7-1.43-2-2.09,0.12-.06.21,0,0.19-0.17-0.41.43-.85-0.59-1.3-0.21-0.83-.64-1.67-1.2-2.52-1.75s-1.76-1-2.68-1.59c0.32,0.13.72-.19,0.35-0.38l-0.56.1,0-.18c-0.29-.06-0.7,0-0.54.35-1.25-.54-2.4-1.22-3.59-1.83-0.59-.32-1.17-0.65-1.75-1l-1.76-1a36.76,36.76,0,0,0-7.31-3.21,14.41,14.41,0,0,0-4.29-1.08,37.14,37.14,0,0,0-4.59-1.8l-0.37-.09a10.88,10.88,0,0,1-2.23-1.24,4.83,4.83,0,0,1-1.26-1.42,4.35,4.35,0,0,1-.55-1.92,6.79,6.79,0,0,1,.09-1.44s0.05-.29.09-0.44a4.25,4.25,0,0,1,.14-0.47,4.59,4.59,0,0,1,.42-0.88,4.52,4.52,0,0,1,1.46-1.46,4.85,4.85,0,0,1,1.92-.69l-0.39.06h0v0l0.39-.06c-0.1.14-.49,0.53-1,1.11A5.88,5.88,0,0,0,21.43,14Z"/><path class="cls-3" d="M25.33,12.1c0.1,0.32.56,0.56,0.1,0.88A2.84,2.84,0,0,1,25.33,12.1Z"/><path class="cls-3" d="M37.31,18.23c0-.08.14,0.17,0.16,0.23-0.16,0-.38.16-0.45,0C37.18,18.47,37.2,18.32,37.31,18.23Z"/><path class="cls-3" d="M40.35,19.53a1.56,1.56,0,0,1-1.27.06Z"/><path class="cls-3" d="M42.75,21.68c0.15,0.31,0,.39-0.28.24A0.51,0.51,0,0,1,42.75,21.68Z"/><path class="cls-3" d="M43.19,21.22a0.59,0.59,0,0,1,.34.47C43.61,21.48,42.94,21.59,43.19,21.22Z"/><path class="cls-3" d="M48.79,24.77c0.15,0.06.55,0,.54,0.35C49.28,24.87,48.5,25.05,48.79,24.77Z"/><path class="cls-3" d="M51.65,25.91a0.26,0.26,0,0,0,.22.13c0.09,0.2-.17.26-0.31,0.2Z"/><polygon class="cls-3" points="84.35 68.54 84.18 68.23 84.44 68.25 84.35 68.54"/><path class="cls-3" d="M79.66,59.11c-0.27-.28.15-0.32,0.17-0.38C80,59,79.48,58.71,79.66,59.11Z"/><polygon class="cls-3" points="72.17 47.23 72.23 47.32 71.76 47.59 72.17 47.23"/><path class="cls-2" d="M118.24,4.77l-0.16.08C104.22,11.58,92.88,24.38,89,39.55c-2.47,9.69-1.5,18.84,2.14,26.34l6.08,2.93C93,60.17,92,47.63,94,39.88c3.46-13.6,13.36-25.11,25.45-31.27,1.49-1.09,1.46-1.82.89-2.8a1.91,1.91,0,0,0-2.1-1h0Z"/><path class="cls-3" d="M119.35,5.81c0.11-.09.16-0.17,0.11-0.19s0,0,0-.06l-0.07,0c-0.1,0-.13,0,0.21-0.06a0.54,0.54,0,0,1,0,.28S119.46,5.84,119.35,5.81Z"/><path class="cls-3" d="M120.51,5.78a1.08,1.08,0,0,1,.8.39,1.14,1.14,0,0,1,.35.85,2.33,2.33,0,0,1-1.27,1.5h0a5.25,5.25,0,0,0-2,1.4c-0.18.17-.33-0.69-0.7-0.25-1.18,1.91-4,3.09-6.46,4l0-.26c-0.46.18-.44,1.09-0.88,1.33a0.48,0.48,0,0,0-.22-0.33c0.18,0.41-.55.73-0.5,1.1a4.9,4.9,0,0,0-.77-0.22L109,15.82c0.22,1.38-1.46,1.22-1.76,2.43,0-.12,0-0.25-0.17-0.27a12.64,12.64,0,0,1-1.47,2.44l-0.88,1.18c-0.28.4-.54,0.81-0.78,1.22a0.85,0.85,0,0,0-.51-0.44,1.24,1.24,0,0,1-.14,1.38c-0.56-.12-0.11,1-0.68,1.3l-0.06-.11c0.2,0.67-.63.35-0.29,1h-0.5c0.52,0.57-.66.32-0.53,0.84l0.13,0.07c0,0.38-.44.33-0.5,0.67l-0.09,0c-0.24.72-.78,0.89-0.28,1.17-0.53,0,.16-0.73-0.61-0.71-0.71,2.42-1.9,4.59-2.79,6.88a1.36,1.36,0,0,1-.67.3,2.8,2.8,0,0,0,0,1.22c0-.08-0.33.06-0.4,0.17-0.36.36,0.44,0.64,0,1a0.47,0.47,0,0,0-.47-0.34,2.75,2.75,0,0,1,.09,1.57,0.41,0.41,0,0,0-.27-0.26c0.34,0.66-.38.93-0.19,1.46l-0.28-.26c-0.57.66,0.62,0.39,0.25,1a0.42,0.42,0,0,0-.33-0.21c0.44,0.73.08,1.65,0.19,2.29a0.23,0.23,0,0,0-.13,0,6.85,6.85,0,0,0-.1,2.09c-0.17.25-.8-0.16-0.73,0.56,0.67,0,.19,1.22,1,0.85a3.77,3.77,0,0,0-.2,1.93c-0.25-.27-0.82.28-0.87-0.22l-0.42.38c-0.27-.06.1-0.4-0.24-0.28a4.38,4.38,0,0,1,.18,1.23,3.73,3.73,0,0,1,1.3,1.62c-0.28-.34-0.73.23-0.85,0l1.32,1c0,0.24-.52.09-0.32,0.43a0.69,0.69,0,0,1,.45.21c-0.07.1,0.25,1-.4,1.18-0.25.14-.17-0.39-0.38-0.09,0,0.46.28,0.46,0.34,0.91l-0.09,0c-0.06.32,0.38,0.86,0.71,0.49,0-.21-0.38.13-0.23-0.21A1.37,1.37,0,0,1,96,55.93a0.77,0.77,0,0,0-.49-0.13,5.27,5.27,0,0,1,1.19,1.78c0.31,0-.6-0.15-0.45-0.28-0.28.94,0.93,1.65,0.46,2.48-0.08-.1.42-0.16,0.34-0.13,0.06,0.41-.39.5-0.16,0.72-0.25.09,0.16,0.32,0.31,0.57C97.4,61,97.07,61,97,60.81a4.69,4.69,0,0,1,1,2.67,1.16,1.16,0,0,1,.83.51l-0.41.06c-0.17.26,0.25,0.64-.07,0.79,0.61,0.25-.94-1.47-0.38-1-0.28.26,0.88,0.57,0.31,0.64,0.14,0.39.72,0.6,0.5,1.1,0-.13-0.66-0.11-0.51.19,0.28,0.53.24,0.09,0.54,0.48l0.26,0.21c0.37-.13.16,0.49,0.48,0.12-0.27.2,0.53,0.67-.1,0.9l-0.51.14a1.93,1.93,0,0,0,1,.23,0.4,0.4,0,0,1-.18.18,0.48,0.48,0,0,1,.31-0.06l2.12,0.68-4.79,2c-0.25.1-.44-0.49-0.88-0.15-0.38-.49-1.26-0.64-1.28-1.2A1.54,1.54,0,0,1,93.87,69a0.42,0.42,0,0,0,.35-0.13c-0.17-.35-0.33-0.19-0.64-0.19a3.79,3.79,0,0,0-.53-1.09,1,1,0,0,0-.7.7c0-.64-0.7-0.38-1.12-0.53l-0.5-.17-0.48-.81a0.48,0.48,0,0,1,0-.53c0.16,0.1.62,0.42,0.65,0,0.55-.7-0.87-0.5-0.79-1.25l-0.54.41c0.25-.43-0.72-0.76-0.08-1-0.3-.12-0.09-0.8-0.66-0.5a4.26,4.26,0,0,0-.44-1.78,1.47,1.47,0,0,1,.18-1.61c-0.15-.12-0.14-0.52-0.44-0.36-0.28.34,0.34,0.28,0.13,0.44a0.31,0.31,0,0,0-.33-0.1c0.05-.37,0-0.63.63-0.46,0.21-.81-1.25-0.47-1.22-1.47,0.27,0,.35-0.11.25-0.37l-0.55-.43c0-.63.52-0.46,1-0.55a1.09,1.09,0,0,0-.53-0.79L88,56c-0.36.34-.31-0.22-0.44-0.36l0.13,0.14c0.18-.09,0-0.44-0.07-0.62a0.83,0.83,0,0,0-.38.7c-0.22-.14-0.22-0.4-0.47-0.6,0.44,0,.25-0.57.27-0.84s-0.43-.3-0.42-0.39c0.23,0,0-.49.33-0.29,0.09,0.09-.2.25,0,0.4,0.15-.21.54-0.22,0.22-0.6s-0.86.15-.62-0.46a1.66,1.66,0,0,0,.46.27l0.19-.56h-0.4A0.51,0.51,0,0,1,87,52.75c-0.43-.14-0.19-0.83-0.66-0.93a3.17,3.17,0,0,1,.3-0.86l0,0.05a0.83,0.83,0,0,0-.2-1h0.09a1.06,1.06,0,0,0-.25-0.82c0.31-.44,1.52-0.11,1-0.61a0.76,0.76,0,0,0-1-.57c0.32-.79-0.27-1.78.44-2.47a0.53,0.53,0,0,1-.33-0.32c0.29-1.16-.13-2.59.84-3.41,0.1,0.38.39,0.1,0.61,0.14-0.3-.35.43-0.26-0.15-0.49-0.36,0-.53-0.12-0.73.19a2.68,2.68,0,0,1,.59-2.07c-0.21.14-.28,0-0.35-0.19a0.46,0.46,0,0,0,.57-0.13A0.71,0.71,0,0,0,88,39a0.88,0.88,0,0,0,0-.32l-0.32-.14,0.42-.16C88,38.16,87.39,38,87.83,37.69a0.91,0.91,0,0,0,.4,0c-0.17-.47-0.47-1.18-0.06-1.52l0.6-.19c0-.19-0.18-0.6-0.43-0.32,0.55-.62.75-1.07,1.25-1.14-0.62-1.6.13-3.41,0.82-4.77l0.22,0.15c0.4-.26-0.32-0.39,0-0.57,0.17,0.23.63,0,.77,0.38,0.51-.4-0.08-0.87,0-1.27-0.28-.21.06,0.37-0.3,0.11-0.08-.11.6-0.61,0.18-0.93a1,1,0,0,1,.69.41l-0.07-.44c0.73-.1.53,1.39,1.4,1.33l0.07-.32c0.62,0,.18,1,0.7.41a1,1,0,0,0-1-.88c0.23-.71-0.93-0.89-0.5-1.56,0.38,0-.25.59,0.2,0.67,0.55-.12.16-0.77,0.46-1-0.35.23-.66-0.31-0.62-0.57,0.42-.23.3,0.48,0.63,0-0.22-.23-0.15-0.82-0.56-0.52-0.48-.53.45-0.44,0.18-1,0.51,0.09.63,1.08,1.18,0.67-0.45-.15-0.12-1-0.88-1.07a0.54,0.54,0,0,1,.72.33c0.43-.14-0.24-1.18.59-0.78L94.11,23c0.19,0,.37-0.08.69-0.09,0.17-.26,0-1.21.6-0.77,0-.12.44-0.68-0.12-0.74-0.51.19,0,.62-0.7,0.45,0.64,0.05.32-.57,0.32-0.88L95.14,21a0.88,0.88,0,0,0,.07-0.7,0.28,0.28,0,0,0,.37.19l-0.25-.38c0.2-.64.69,0.32,0.94-0.25v0.57a1.09,1.09,0,0,0,.5-0.37c-0.24-.32-0.49-0.78-0.66-1,0.08-.37.44,0.14,0.34-0.36l0.09,0.63a0.8,0.8,0,0,0,1-.2c0.08-.31-0.07-1-0.53-0.78,0.14-.18.53-0.29,0.63,0,0.22-.49-0.37-0.21-0.27-0.71,0.32,0,1-.2,1.46-0.22L99,18.23l0.2-.23c0.15,0.64.43,0.1,0.7,0.62a0.84,0.84,0,0,0,.24-0.65c-1.07-.11-0.45-1.29-1.16-1.68,0.41-.79,1.79.9,1.46-0.6-0.25,0-.41-0.75-0.6-0.2,0.42-.34-0.34-0.81.32-1.06-0.07.57,0.92,0.19,0.82,1-0.16-.21-0.39.14-0.41,0.26,0.37,0,.56.58,0.91,0.18,0.16-.29.47-0.61,0.12-0.85s-0.32.39-.5-0.08c0.35-.58.92-0.17,0.53-0.93-0.25.34-.66,0.09-0.87-0.14l0.21-.48,0.15,0.28c0.71-.4-0.23-0.55.37-1l0.67,0.17c0.23,0.49-.93.62-0.25,1.11,0.37-.32.18-0.74,0.66-0.91,0,0.12-.11.24-0.13,0.36,0.15-.1,1,0.56,1.08-0.37,0.09-.42-0.13-0.28-0.34-0.51,0.51-.59.47-1,0.82-1.37,0.33,0.53.7-.55,0.7,0.29a1.18,1.18,0,0,0-1,1.3c0.71,0.34-.53.33-0.13,1,0.46-.41.93,0.14,1.32,0.41a0.66,0.66,0,0,0,.16-0.46,3.31,3.31,0,0,0-.72-0.54,1.92,1.92,0,0,0,.91-1.58,0.42,0.42,0,0,1,.38.6,6.41,6.41,0,0,1,1.92-1.53c-0.84-.24.56-0.68-0.07-0.93a0.78,0.78,0,0,1-1-.43c0.23-.13.19,0.25,0.37,0.3,0-.52.8,0.16,0.67-0.53-0.44.66,0.43,0.78,0.67,1.31,0.22-.59.23,0.33,0.64,0a5.81,5.81,0,0,1,1-1.6c0.9,0,1.54-1.09,2.09-1.47,0.45,0,.6.71,1,0.59s-0.65-.4.06-0.51l0,0.14c0.09-.24,1.22-0.28.92-1.15L114,7a0.37,0.37,0,0,0,.2-0.31,0.57,0.57,0,0,1,.25.52c0.58,0.21.68-.49,1-0.72L115,6.3c0.49-.65,1.12-0.58,1.68-1l0.16,0.36,0.27-.41c0.09,0.39.55,0.43,0.6,0l-0.53,1.37c-0.38-.07.08-0.58-0.28-0.84a0.54,0.54,0,0,0-.75.58,0.49,0.49,0,0,0,.31-0.4c0.33,0.45,0,.62,0,1,0.1-.09.34,0,0.28-0.2a1.18,1.18,0,0,1-.65.76c0.14-.34-0.3-0.22-0.28-0.42,0.21,0.45-.06.78-0.58,0.92-0.61-.3-0.65.8-1.23,1a2.35,2.35,0,0,1,.2-1.43c-0.47,0-.36.24-0.82,0.24a2.12,2.12,0,0,1-.06,1.43l-0.22-.29c-0.28.41,0,.85-0.51,1.08a17.68,17.68,0,0,0-2.35,1.42l-0.24-.27c0.13,0.85-.91,1.1-1.13,1.72-1,.32-1.35,1.59-2.12,1.45a29.48,29.48,0,0,1-3.2,3.72l-0.19-.58c0.07,0.5-.36-0.06-0.51.23,0.55,0,.12.69,0.22,1.07A2.55,2.55,0,0,0,101.84,21l-0.3-.21c0.11,1-.9,1.21-1.49,1.84a0.66,0.66,0,0,0-.66.14,3.17,3.17,0,0,1-.07,1.66A6.22,6.22,0,0,1,98,25.74a9.44,9.44,0,0,1-1,2.68c-0.22.42-.45,0.84-0.65,1.26a7.22,7.22,0,0,0-.44,1.38L95.45,31a4.8,4.8,0,0,1-.27,1.49,9.9,9.9,0,0,1-.55,1.4,7.07,7.07,0,0,0-.88,2.6l-0.64-.39a0.69,0.69,0,0,0,.34,1.18c-0.39.4,0,1.28-.68,1.41-0.27.45,0.15,0.69,0.13,1.12l-0.18.31,0,0.07s0,0.08,0,0l0,0-0.06.15a3.8,3.8,0,0,0-.17.54,7.42,7.42,0,0,0-.15,1.2l0.09-.22a0.32,0.32,0,0,0-.54,0c0.14,0.39-.43,1.22.49,1A2.49,2.49,0,0,0,92,44.55a2.43,2.43,0,0,1-.41,1.62c0.25-.06.27,0.19,0.42,0.31-0.08.86-.62,1.77-0.23,2.48-0.12.14-.4-0.24-0.43,0.12a4.47,4.47,0,0,1,.44.28c0.4,1.4-.43,2.87-0.2,4.17,0.67,2.23.91,4.58,1.62,6.64l-0.18,0c0.84,0.48-.11,1.86,1.05,2-0.09.22,0.17,0.63-.19,0.64,0.51,0.29.36,1.2,0.76,1.82l-1.27-1.27a1.27,1.27,0,0,0,.58.06,0.27,0.27,0,0,0-.25,0c0.66,0.75,1.63.63,2.35,1.37a0.55,0.55,0,0,0-.41.14c0.19,0.47,1.13-.28.94,0.57,0.2,0.09.32-.32,0.19-0.35a11.93,11.93,0,0,0,2.6,1.29L95.91,70c-0.33-.58-0.68-1.16-1-1.75S94.24,67,94,66.4c-0.06-1.78,1.32-.56.3-1.62,0.12-.15-0.33,0-0.17,0-0.4-.42.67-1,0.15-1.25-0.46.29-.34-0.15-0.65-0.07,0-1.08.45-1.38-.12-2.07h0.28c-1-.73-0.79-1.89-1.82-2.51a51.6,51.6,0,0,1-1.38-15.5c0.18-1.31.42-2.62,0.73-4l0.05-.25,0-.12,0.06-.22,0.12-.43,0.24-.86c0.17-.58.28-1.11,0.52-1.78L93,33.81c0.23-.63.5-1.2,0.76-1.8a28.33,28.33,0,0,1,1.84-3.45,2.57,2.57,0,0,0,1.64-2.12c0.07,0.11.06,0.19,0.2,0.17-0.49-.36.43-0.83,0-1.23,1.1-1.58,2-3.14,3.17-4.71-0.14.29,0.15,0.7,0.34,0.38l-0.06-.53L101,20.58c0.09-.25,0-0.65-0.28-0.56a22.75,22.75,0,0,1,5.07-5.43c1.92-1.56,3.94-2.91,5.84-4.42a9.6,9.6,0,0,0,1.67-1.07c0.56-.44,1.11-0.91,1.62-1.28,1.49-.56,3-1,4.34-1.52l-0.35.22,0.38-.19,0.1,0h0l0.06,0,0.37,0.25a2.15,2.15,0,0,0,.61.29h-0.13l-0.26,0L119.66,7l-0.25.09h0A0.53,0.53,0,0,0,119.35,7l0,0h0l0,0.08h0V7l0,0a0.41,0.41,0,0,0-.07-0.1s0,0.07.09,0l0.13-.11a1.07,1.07,0,0,0,.14-0.16c0.05-.08,0-0.07,0,0a0.5,0.5,0,1,1-.05-0.33l-0.05,1h0v0l0.06-1a1.77,1.77,0,0,1,0,.2v0.1s0,0,0-.07a1.17,1.17,0,0,1,0-.14A0.62,0.62,0,0,1,120.51,5.78Z"/><path class="cls-3" d="M118.76,6.18C118.51,6,118.08,6,118.19,5.52A3.33,3.33,0,0,1,118.76,6.18Z"/><path class="cls-3" d="M107.94,9.45c0,0.08-.2,0-0.25,0,0.09-.1,0-0.39.22-0.33C107.81,9.21,107.91,9.31,107.94,9.45Z"/><path class="cls-3" d="M105.61,11.12a1.26,1.26,0,0,1,.47-1Z"/><path class="cls-3" d="M102.88,12.13c-0.33,0-.36-0.13-0.12-0.34A0.53,0.53,0,0,1,102.88,12.13Z"/><path class="cls-3" d="M103.15,12.69a0.55,0.55,0,0,1-.53.09C102.78,12.93,102.9,12.32,103.15,12.69Z"/><path class="cls-3" d="M98.53,16.42c-0.08.12-.12,0.49-0.43,0.4C98.36,16.84,98.32,16.09,98.53,16.42Z"/><path class="cls-3" d="M97.09,18.8A0.21,0.21,0,0,0,97,19c-0.2.05-.24-0.2-0.17-0.32Z"/><polygon class="cls-3" points="89.94 65.81 89.7 65.6 89.96 65.53 89.94 65.81"/><path class="cls-3" d="M96.55,56.11c-0.21-.24.21-0.22,0.25-0.27C96.86,56.08,96.46,55.8,96.55,56.11Z"/><polygon class="cls-3" points="94.83 45.31 94.83 45.4 94.29 45.33 94.83 45.31"/><path class="cls-3" d="M70.5,25.52c-1.05-3.86-.11-8.87,4.41-9.87,3.7-.81,7.08,2.37,8.14,5.68,1.12,3.5.2,8.44-3.74,9.73S71.81,29,70.5,25.52c-0.5-1.34-2.68-.76-2.17.6,1.7,4.52,6,8.58,11.17,7.22,5.41-1.41,7.28-7.71,5.72-12.6-1.42-4.46-5.86-8.32-10.76-7.33-5.84,1.18-7.51,7.66-6.13,12.71A1.13,1.13,0,0,0,70.5,25.52Z"/><path class="cls-3" d="M87.06,93.37C86,89.51,87,84.5,91.48,83.51c3.7-.81,7.08,2.37,8.14,5.68,1.12,3.5.2,8.44-3.74,9.73s-7.5-2.06-8.81-5.55c-0.5-1.34-2.68-.76-2.17.6,1.7,4.52,6,8.58,11.17,7.22,5.41-1.41,7.28-7.71,5.72-12.6-1.42-4.46-5.86-8.32-10.76-7.33-5.84,1.18-7.51,7.66-6.13,12.71A1.13,1.13,0,0,0,87.06,93.37Z"/></svg>